<?xml version="1.0" encoding="utf-8" standalone="no"?>
<!DOCTYPE svg PUBLIC "-//W3C//DTD SVG 1.1//EN"
  "http://www.w3.org/Graphics/SVG/1.1/DTD/svg11.dtd">
<svg xmlns:xlink="http://www.w3.org/1999/xlink" width="494.203125pt" height="414.024062pt" viewBox="0 0 494.203125 414.024062" xmlns="http://www.w3.org/2000/svg" version="1.1">
 <metadata>
  <rdf:RDF xmlns:dc="http://purl.org/dc/elements/1.1/" xmlns:cc="http://creativecommons.org/ns#" xmlns:rdf="http://www.w3.org/1999/02/22-rdf-syntax-ns#">
   <cc:Work>
    <dc:type rdf:resource="http://purl.org/dc/dcmitype/StillImage"/>
    <dc:date>2025-03-13T08:26:49.331603</dc:date>
    <dc:format>image/svg+xml</dc:format>
    <dc:creator>
     <cc:Agent>
      <dc:title>Matplotlib v3.9.2, https://matplotlib.org/</dc:title>
     </cc:Agent>
    </dc:creator>
   </cc:Work>
  </rdf:RDF>
 </metadata>
 <defs>
  <style type="text/css">*{stroke-linejoin: round; stroke-linecap: butt}</style>
 </defs>
 <g id="figure_1">
  <g id="patch_1">
   <path d="M 0 414.024062 
L 494.203125 414.024062 
L 494.203125 0 
L 0 0 
z
" style="fill: #ffffff"/>
  </g>
  <g id="axes_1">
   <g id="patch_2">
    <path d="M 40.603125 273.317812 
L 487.003125 273.317812 
L 487.003125 23.837812 
L 40.603125 23.837812 
z
" style="fill: #ffffff"/>
   </g>
   <g id="matplotlib.axis_1">
    <g id="xtick_1">
     <g id="line2d_1">
      <defs>
       <path id="m2af3a79476" d="M 0 0 
L 0 3.5 
" style="stroke: #000000; stroke-width: 0.8"/>
      </defs>
      <g>
       <use xlink:href="#m2af3a79476" x="55.637322" y="273.317812" style="stroke: #000000; stroke-width: 0.8"/>
      </g>
     </g>
     <g id="text_1">
      <!-- Pedestrian -->
      <g transform="translate(58.396697 333.124062) rotate(-90) scale(0.1 -0.1)">
       <defs>
        <path id="DejaVuSans-50" d="M 1259 4147 
L 1259 2394 
L 2053 2394 
Q 2494 2394 2734 2622 
Q 2975 2850 2975 3272 
Q 2975 3691 2734 3919 
Q 2494 4147 2053 4147 
L 1259 4147 
z
M 628 4666 
L 2053 4666 
Q 2838 4666 3239 4311 
Q 3641 3956 3641 3272 
Q 3641 2581 3239 2228 
Q 2838 1875 2053 1875 
L 1259 1875 
L 1259 0 
L 628 0 
L 628 4666 
z
" transform="scale(0.015625)"/>
        <path id="DejaVuSans-65" d="M 3597 1894 
L 3597 1613 
L 953 1613 
Q 991 1019 1311 708 
Q 1631 397 2203 397 
Q 2534 397 2845 478 
Q 3156 559 3463 722 
L 3463 178 
Q 3153 47 2828 -22 
Q 2503 -91 2169 -91 
Q 1331 -91 842 396 
Q 353 884 353 1716 
Q 353 2575 817 3079 
Q 1281 3584 2069 3584 
Q 2775 3584 3186 3129 
Q 3597 2675 3597 1894 
z
M 3022 2063 
Q 3016 2534 2758 2815 
Q 2500 3097 2075 3097 
Q 1594 3097 1305 2825 
Q 1016 2553 972 2059 
L 3022 2063 
z
" transform="scale(0.015625)"/>
        <path id="DejaVuSans-64" d="M 2906 2969 
L 2906 4863 
L 3481 4863 
L 3481 0 
L 2906 0 
L 2906 525 
Q 2725 213 2448 61 
Q 2172 -91 1784 -91 
Q 1150 -91 751 415 
Q 353 922 353 1747 
Q 353 2572 751 3078 
Q 1150 3584 1784 3584 
Q 2172 3584 2448 3432 
Q 2725 3281 2906 2969 
z
M 947 1747 
Q 947 1113 1208 752 
Q 1469 391 1925 391 
Q 2381 391 2643 752 
Q 2906 1113 2906 1747 
Q 2906 2381 2643 2742 
Q 2381 3103 1925 3103 
Q 1469 3103 1208 2742 
Q 947 2381 947 1747 
z
" transform="scale(0.015625)"/>
        <path id="DejaVuSans-73" d="M 2834 3397 
L 2834 2853 
Q 2591 2978 2328 3040 
Q 2066 3103 1784 3103 
Q 1356 3103 1142 2972 
Q 928 2841 928 2578 
Q 928 2378 1081 2264 
Q 1234 2150 1697 2047 
L 1894 2003 
Q 2506 1872 2764 1633 
Q 3022 1394 3022 966 
Q 3022 478 2636 193 
Q 2250 -91 1575 -91 
Q 1294 -91 989 -36 
Q 684 19 347 128 
L 347 722 
Q 666 556 975 473 
Q 1284 391 1588 391 
Q 1994 391 2212 530 
Q 2431 669 2431 922 
Q 2431 1156 2273 1281 
Q 2116 1406 1581 1522 
L 1381 1569 
Q 847 1681 609 1914 
Q 372 2147 372 2553 
Q 372 3047 722 3315 
Q 1072 3584 1716 3584 
Q 2034 3584 2315 3537 
Q 2597 3491 2834 3397 
z
" transform="scale(0.015625)"/>
        <path id="DejaVuSans-74" d="M 1172 4494 
L 1172 3500 
L 2356 3500 
L 2356 3053 
L 1172 3053 
L 1172 1153 
Q 1172 725 1289 603 
Q 1406 481 1766 481 
L 2356 481 
L 2356 0 
L 1766 0 
Q 1100 0 847 248 
Q 594 497 594 1153 
L 594 3053 
L 172 3053 
L 172 3500 
L 594 3500 
L 594 4494 
L 1172 4494 
z
" transform="scale(0.015625)"/>
        <path id="DejaVuSans-72" d="M 2631 2963 
Q 2534 3019 2420 3045 
Q 2306 3072 2169 3072 
Q 1681 3072 1420 2755 
Q 1159 2438 1159 1844 
L 1159 0 
L 581 0 
L 581 3500 
L 1159 3500 
L 1159 2956 
Q 1341 3275 1631 3429 
Q 1922 3584 2338 3584 
Q 2397 3584 2469 3576 
Q 2541 3569 2628 3553 
L 2631 2963 
z
" transform="scale(0.015625)"/>
        <path id="DejaVuSans-69" d="M 603 3500 
L 1178 3500 
L 1178 0 
L 603 0 
L 603 3500 
z
M 603 4863 
L 1178 4863 
L 1178 4134 
L 603 4134 
L 603 4863 
z
" transform="scale(0.015625)"/>
        <path id="DejaVuSans-61" d="M 2194 1759 
Q 1497 1759 1228 1600 
Q 959 1441 959 1056 
Q 959 750 1161 570 
Q 1363 391 1709 391 
Q 2188 391 2477 730 
Q 2766 1069 2766 1631 
L 2766 1759 
L 2194 1759 
z
M 3341 1997 
L 3341 0 
L 2766 0 
L 2766 531 
Q 2569 213 2275 61 
Q 1981 -91 1556 -91 
Q 1019 -91 701 211 
Q 384 513 384 1019 
Q 384 1609 779 1909 
Q 1175 2209 1959 2209 
L 2766 2209 
L 2766 2266 
Q 2766 2663 2505 2880 
Q 2244 3097 1772 3097 
Q 1472 3097 1187 3025 
Q 903 2953 641 2809 
L 641 3341 
Q 956 3463 1253 3523 
Q 1550 3584 1831 3584 
Q 2591 3584 2966 3190 
Q 3341 2797 3341 1997 
z
" transform="scale(0.015625)"/>
        <path id="DejaVuSans-6e" d="M 3513 2113 
L 3513 0 
L 2938 0 
L 2938 2094 
Q 2938 2591 2744 2837 
Q 2550 3084 2163 3084 
Q 1697 3084 1428 2787 
Q 1159 2491 1159 1978 
L 1159 0 
L 581 0 
L 581 3500 
L 1159 3500 
L 1159 2956 
Q 1366 3272 1645 3428 
Q 1925 3584 2291 3584 
Q 2894 3584 3203 3211 
Q 3513 2838 3513 2113 
z
" transform="scale(0.015625)"/>
       </defs>
       <use xlink:href="#DejaVuSans-50"/>
       <use xlink:href="#DejaVuSans-65" x="56.677734"/>
       <use xlink:href="#DejaVuSans-64" x="118.201172"/>
       <use xlink:href="#DejaVuSans-65" x="181.677734"/>
       <use xlink:href="#DejaVuSans-73" x="243.201172"/>
       <use xlink:href="#DejaVuSans-74" x="295.300781"/>
       <use xlink:href="#DejaVuSans-72" x="334.509766"/>
       <use xlink:href="#DejaVuSans-69" x="375.623047"/>
       <use xlink:href="#DejaVuSans-61" x="403.40625"/>
       <use xlink:href="#DejaVuSans-6e" x="464.685547"/>
      </g>
     </g>
    </g>
    <g id="xtick_2">
     <g id="line2d_2">
      <g>
       <use xlink:href="#m2af3a79476" x="78.766856" y="273.317812" style="stroke: #000000; stroke-width: 0.8"/>
      </g>
     </g>
     <g id="text_2">
      <!-- Fixed Object -->
      <g transform="translate(81.526231 341.97875) rotate(-90) scale(0.1 -0.1)">
       <defs>
        <path id="DejaVuSans-46" d="M 628 4666 
L 3309 4666 
L 3309 4134 
L 1259 4134 
L 1259 2759 
L 3109 2759 
L 3109 2228 
L 1259 2228 
L 1259 0 
L 628 0 
L 628 4666 
z
" transform="scale(0.015625)"/>
        <path id="DejaVuSans-78" d="M 3513 3500 
L 2247 1797 
L 3578 0 
L 2900 0 
L 1881 1375 
L 863 0 
L 184 0 
L 1544 1831 
L 300 3500 
L 978 3500 
L 1906 2253 
L 2834 3500 
L 3513 3500 
z
" transform="scale(0.015625)"/>
        <path id="DejaVuSans-20" transform="scale(0.015625)"/>
        <path id="DejaVuSans-4f" d="M 2522 4238 
Q 1834 4238 1429 3725 
Q 1025 3213 1025 2328 
Q 1025 1447 1429 934 
Q 1834 422 2522 422 
Q 3209 422 3611 934 
Q 4013 1447 4013 2328 
Q 4013 3213 3611 3725 
Q 3209 4238 2522 4238 
z
M 2522 4750 
Q 3503 4750 4090 4092 
Q 4678 3434 4678 2328 
Q 4678 1225 4090 567 
Q 3503 -91 2522 -91 
Q 1538 -91 948 565 
Q 359 1222 359 2328 
Q 359 3434 948 4092 
Q 1538 4750 2522 4750 
z
" transform="scale(0.015625)"/>
        <path id="DejaVuSans-62" d="M 3116 1747 
Q 3116 2381 2855 2742 
Q 2594 3103 2138 3103 
Q 1681 3103 1420 2742 
Q 1159 2381 1159 1747 
Q 1159 1113 1420 752 
Q 1681 391 2138 391 
Q 2594 391 2855 752 
Q 3116 1113 3116 1747 
z
M 1159 2969 
Q 1341 3281 1617 3432 
Q 1894 3584 2278 3584 
Q 2916 3584 3314 3078 
Q 3713 2572 3713 1747 
Q 3713 922 3314 415 
Q 2916 -91 2278 -91 
Q 1894 -91 1617 61 
Q 1341 213 1159 525 
L 1159 0 
L 581 0 
L 581 4863 
L 1159 4863 
L 1159 2969 
z
" transform="scale(0.015625)"/>
        <path id="DejaVuSans-6a" d="M 603 3500 
L 1178 3500 
L 1178 -63 
Q 1178 -731 923 -1031 
Q 669 -1331 103 -1331 
L -116 -1331 
L -116 -844 
L 38 -844 
Q 366 -844 484 -692 
Q 603 -541 603 -63 
L 603 3500 
z
M 603 4863 
L 1178 4863 
L 1178 4134 
L 603 4134 
L 603 4863 
z
" transform="scale(0.015625)"/>
        <path id="DejaVuSans-63" d="M 3122 3366 
L 3122 2828 
Q 2878 2963 2633 3030 
Q 2388 3097 2138 3097 
Q 1578 3097 1268 2742 
Q 959 2388 959 1747 
Q 959 1106 1268 751 
Q 1578 397 2138 397 
Q 2388 397 2633 464 
Q 2878 531 3122 666 
L 3122 134 
Q 2881 22 2623 -34 
Q 2366 -91 2075 -91 
Q 1284 -91 818 406 
Q 353 903 353 1747 
Q 353 2603 823 3093 
Q 1294 3584 2113 3584 
Q 2378 3584 2631 3529 
Q 2884 3475 3122 3366 
z
" transform="scale(0.015625)"/>
       </defs>
       <use xlink:href="#DejaVuSans-46"/>
       <use xlink:href="#DejaVuSans-69" x="50.269531"/>
       <use xlink:href="#DejaVuSans-78" x="78.052734"/>
       <use xlink:href="#DejaVuSans-65" x="134.107422"/>
       <use xlink:href="#DejaVuSans-64" x="195.630859"/>
       <use xlink:href="#DejaVuSans-20" x="259.107422"/>
       <use xlink:href="#DejaVuSans-4f" x="290.894531"/>
       <use xlink:href="#DejaVuSans-62" x="369.605469"/>
       <use xlink:href="#DejaVuSans-6a" x="433.082031"/>
       <use xlink:href="#DejaVuSans-65" x="460.865234"/>
       <use xlink:href="#DejaVuSans-63" x="522.388672"/>
       <use xlink:href="#DejaVuSans-74" x="577.369141"/>
      </g>
     </g>
    </g>
    <g id="xtick_3">
     <g id="line2d_3">
      <g>
       <use xlink:href="#m2af3a79476" x="101.896389" y="273.317812" style="stroke: #000000; stroke-width: 0.8"/>
      </g>
     </g>
     <g id="text_3">
      <!-- Head On -->
      <g transform="translate(104.655764 323.855312) rotate(-90) scale(0.1 -0.1)">
       <defs>
        <path id="DejaVuSans-48" d="M 628 4666 
L 1259 4666 
L 1259 2753 
L 3553 2753 
L 3553 4666 
L 4184 4666 
L 4184 0 
L 3553 0 
L 3553 2222 
L 1259 2222 
L 1259 0 
L 628 0 
L 628 4666 
z
" transform="scale(0.015625)"/>
       </defs>
       <use xlink:href="#DejaVuSans-48"/>
       <use xlink:href="#DejaVuSans-65" x="75.195312"/>
       <use xlink:href="#DejaVuSans-61" x="136.71875"/>
       <use xlink:href="#DejaVuSans-64" x="197.998047"/>
       <use xlink:href="#DejaVuSans-20" x="261.474609"/>
       <use xlink:href="#DejaVuSans-4f" x="293.261719"/>
       <use xlink:href="#DejaVuSans-6e" x="371.972656"/>
      </g>
     </g>
    </g>
    <g id="xtick_4">
     <g id="line2d_4">
      <g>
       <use xlink:href="#m2af3a79476" x="125.025923" y="273.317812" style="stroke: #000000; stroke-width: 0.8"/>
      </g>
     </g>
     <g id="text_4">
      <!-- Angle -->
      <g transform="translate(127.785298 308.775625) rotate(-90) scale(0.1 -0.1)">
       <defs>
        <path id="DejaVuSans-41" d="M 2188 4044 
L 1331 1722 
L 3047 1722 
L 2188 4044 
z
M 1831 4666 
L 2547 4666 
L 4325 0 
L 3669 0 
L 3244 1197 
L 1141 1197 
L 716 0 
L 50 0 
L 1831 4666 
z
" transform="scale(0.015625)"/>
        <path id="DejaVuSans-67" d="M 2906 1791 
Q 2906 2416 2648 2759 
Q 2391 3103 1925 3103 
Q 1463 3103 1205 2759 
Q 947 2416 947 1791 
Q 947 1169 1205 825 
Q 1463 481 1925 481 
Q 2391 481 2648 825 
Q 2906 1169 2906 1791 
z
M 3481 434 
Q 3481 -459 3084 -895 
Q 2688 -1331 1869 -1331 
Q 1566 -1331 1297 -1286 
Q 1028 -1241 775 -1147 
L 775 -588 
Q 1028 -725 1275 -790 
Q 1522 -856 1778 -856 
Q 2344 -856 2625 -561 
Q 2906 -266 2906 331 
L 2906 616 
Q 2728 306 2450 153 
Q 2172 0 1784 0 
Q 1141 0 747 490 
Q 353 981 353 1791 
Q 353 2603 747 3093 
Q 1141 3584 1784 3584 
Q 2172 3584 2450 3431 
Q 2728 3278 2906 2969 
L 2906 3500 
L 3481 3500 
L 3481 434 
z
" transform="scale(0.015625)"/>
        <path id="DejaVuSans-6c" d="M 603 4863 
L 1178 4863 
L 1178 0 
L 603 0 
L 603 4863 
z
" transform="scale(0.015625)"/>
       </defs>
       <use xlink:href="#DejaVuSans-41"/>
       <use xlink:href="#DejaVuSans-6e" x="68.408203"/>
       <use xlink:href="#DejaVuSans-67" x="131.787109"/>
       <use xlink:href="#DejaVuSans-6c" x="195.263672"/>
       <use xlink:href="#DejaVuSans-65" x="223.046875"/>
      </g>
     </g>
    </g>
    <g id="xtick_5">
     <g id="line2d_5">
      <g>
       <use xlink:href="#m2af3a79476" x="148.155457" y="273.317812" style="stroke: #000000; stroke-width: 0.8"/>
      </g>
     </g>
     <g id="text_5">
      <!-- Left Turn -->
      <g transform="translate(150.914832 323.517812) rotate(-90) scale(0.1 -0.1)">
       <defs>
        <path id="DejaVuSans-4c" d="M 628 4666 
L 1259 4666 
L 1259 531 
L 3531 531 
L 3531 0 
L 628 0 
L 628 4666 
z
" transform="scale(0.015625)"/>
        <path id="DejaVuSans-66" d="M 2375 4863 
L 2375 4384 
L 1825 4384 
Q 1516 4384 1395 4259 
Q 1275 4134 1275 3809 
L 1275 3500 
L 2222 3500 
L 2222 3053 
L 1275 3053 
L 1275 0 
L 697 0 
L 697 3053 
L 147 3053 
L 147 3500 
L 697 3500 
L 697 3744 
Q 697 4328 969 4595 
Q 1241 4863 1831 4863 
L 2375 4863 
z
" transform="scale(0.015625)"/>
        <path id="DejaVuSans-54" d="M -19 4666 
L 3928 4666 
L 3928 4134 
L 2272 4134 
L 2272 0 
L 1638 0 
L 1638 4134 
L -19 4134 
L -19 4666 
z
" transform="scale(0.015625)"/>
        <path id="DejaVuSans-75" d="M 544 1381 
L 544 3500 
L 1119 3500 
L 1119 1403 
Q 1119 906 1312 657 
Q 1506 409 1894 409 
Q 2359 409 2629 706 
Q 2900 1003 2900 1516 
L 2900 3500 
L 3475 3500 
L 3475 0 
L 2900 0 
L 2900 538 
Q 2691 219 2414 64 
Q 2138 -91 1772 -91 
Q 1169 -91 856 284 
Q 544 659 544 1381 
z
M 1991 3584 
L 1991 3584 
z
" transform="scale(0.015625)"/>
       </defs>
       <use xlink:href="#DejaVuSans-4c"/>
       <use xlink:href="#DejaVuSans-65" x="53.962891"/>
       <use xlink:href="#DejaVuSans-66" x="115.486328"/>
       <use xlink:href="#DejaVuSans-74" x="148.941406"/>
       <use xlink:href="#DejaVuSans-20" x="188.150391"/>
       <use xlink:href="#DejaVuSans-54" x="219.9375"/>
       <use xlink:href="#DejaVuSans-75" x="265.896484"/>
       <use xlink:href="#DejaVuSans-72" x="329.275391"/>
       <use xlink:href="#DejaVuSans-6e" x="368.638672"/>
      </g>
     </g>
    </g>
    <g id="xtick_6">
     <g id="line2d_6">
      <g>
       <use xlink:href="#m2af3a79476" x="171.28499" y="273.317812" style="stroke: #000000; stroke-width: 0.8"/>
      </g>
     </g>
     <g id="text_6">
      <!-- Rear End -->
      <g transform="translate(174.044365 325.39125) rotate(-90) scale(0.1 -0.1)">
       <defs>
        <path id="DejaVuSans-52" d="M 2841 2188 
Q 3044 2119 3236 1894 
Q 3428 1669 3622 1275 
L 4263 0 
L 3584 0 
L 2988 1197 
Q 2756 1666 2539 1819 
Q 2322 1972 1947 1972 
L 1259 1972 
L 1259 0 
L 628 0 
L 628 4666 
L 2053 4666 
Q 2853 4666 3247 4331 
Q 3641 3997 3641 3322 
Q 3641 2881 3436 2590 
Q 3231 2300 2841 2188 
z
M 1259 4147 
L 1259 2491 
L 2053 2491 
Q 2509 2491 2742 2702 
Q 2975 2913 2975 3322 
Q 2975 3731 2742 3939 
Q 2509 4147 2053 4147 
L 1259 4147 
z
" transform="scale(0.015625)"/>
        <path id="DejaVuSans-45" d="M 628 4666 
L 3578 4666 
L 3578 4134 
L 1259 4134 
L 1259 2753 
L 3481 2753 
L 3481 2222 
L 1259 2222 
L 1259 531 
L 3634 531 
L 3634 0 
L 628 0 
L 628 4666 
z
" transform="scale(0.015625)"/>
       </defs>
       <use xlink:href="#DejaVuSans-52"/>
       <use xlink:href="#DejaVuSans-65" x="64.982422"/>
       <use xlink:href="#DejaVuSans-61" x="126.505859"/>
       <use xlink:href="#DejaVuSans-72" x="187.785156"/>
       <use xlink:href="#DejaVuSans-20" x="228.898438"/>
       <use xlink:href="#DejaVuSans-45" x="260.685547"/>
       <use xlink:href="#DejaVuSans-6e" x="323.869141"/>
       <use xlink:href="#DejaVuSans-64" x="387.248047"/>
      </g>
     </g>
    </g>
    <g id="xtick_7">
     <g id="line2d_7">
      <g>
       <use xlink:href="#m2af3a79476" x="194.414524" y="273.317812" style="stroke: #000000; stroke-width: 0.8"/>
      </g>
     </g>
     <g id="text_7">
      <!-- Sideswipe - Passing -->
      <g transform="translate(197.173899 378.167812) rotate(-90) scale(0.1 -0.1)">
       <defs>
        <path id="DejaVuSans-53" d="M 3425 4513 
L 3425 3897 
Q 3066 4069 2747 4153 
Q 2428 4238 2131 4238 
Q 1616 4238 1336 4038 
Q 1056 3838 1056 3469 
Q 1056 3159 1242 3001 
Q 1428 2844 1947 2747 
L 2328 2669 
Q 3034 2534 3370 2195 
Q 3706 1856 3706 1288 
Q 3706 609 3251 259 
Q 2797 -91 1919 -91 
Q 1588 -91 1214 -16 
Q 841 59 441 206 
L 441 856 
Q 825 641 1194 531 
Q 1563 422 1919 422 
Q 2459 422 2753 634 
Q 3047 847 3047 1241 
Q 3047 1584 2836 1778 
Q 2625 1972 2144 2069 
L 1759 2144 
Q 1053 2284 737 2584 
Q 422 2884 422 3419 
Q 422 4038 858 4394 
Q 1294 4750 2059 4750 
Q 2388 4750 2728 4690 
Q 3069 4631 3425 4513 
z
" transform="scale(0.015625)"/>
        <path id="DejaVuSans-77" d="M 269 3500 
L 844 3500 
L 1563 769 
L 2278 3500 
L 2956 3500 
L 3675 769 
L 4391 3500 
L 4966 3500 
L 4050 0 
L 3372 0 
L 2619 2869 
L 1863 0 
L 1184 0 
L 269 3500 
z
" transform="scale(0.015625)"/>
        <path id="DejaVuSans-70" d="M 1159 525 
L 1159 -1331 
L 581 -1331 
L 581 3500 
L 1159 3500 
L 1159 2969 
Q 1341 3281 1617 3432 
Q 1894 3584 2278 3584 
Q 2916 3584 3314 3078 
Q 3713 2572 3713 1747 
Q 3713 922 3314 415 
Q 2916 -91 2278 -91 
Q 1894 -91 1617 61 
Q 1341 213 1159 525 
z
M 3116 1747 
Q 3116 2381 2855 2742 
Q 2594 3103 2138 3103 
Q 1681 3103 1420 2742 
Q 1159 2381 1159 1747 
Q 1159 1113 1420 752 
Q 1681 391 2138 391 
Q 2594 391 2855 752 
Q 3116 1113 3116 1747 
z
" transform="scale(0.015625)"/>
        <path id="DejaVuSans-2d" d="M 313 2009 
L 1997 2009 
L 1997 1497 
L 313 1497 
L 313 2009 
z
" transform="scale(0.015625)"/>
       </defs>
       <use xlink:href="#DejaVuSans-53"/>
       <use xlink:href="#DejaVuSans-69" x="63.476562"/>
       <use xlink:href="#DejaVuSans-64" x="91.259766"/>
       <use xlink:href="#DejaVuSans-65" x="154.736328"/>
       <use xlink:href="#DejaVuSans-73" x="216.259766"/>
       <use xlink:href="#DejaVuSans-77" x="268.359375"/>
       <use xlink:href="#DejaVuSans-69" x="350.146484"/>
       <use xlink:href="#DejaVuSans-70" x="377.929688"/>
       <use xlink:href="#DejaVuSans-65" x="441.40625"/>
       <use xlink:href="#DejaVuSans-20" x="502.929688"/>
       <use xlink:href="#DejaVuSans-2d" x="534.716797"/>
       <use xlink:href="#DejaVuSans-20" x="570.800781"/>
       <use xlink:href="#DejaVuSans-50" x="602.587891"/>
       <use xlink:href="#DejaVuSans-61" x="658.390625"/>
       <use xlink:href="#DejaVuSans-73" x="719.669922"/>
       <use xlink:href="#DejaVuSans-73" x="771.769531"/>
       <use xlink:href="#DejaVuSans-69" x="823.869141"/>
       <use xlink:href="#DejaVuSans-6e" x="851.652344"/>
       <use xlink:href="#DejaVuSans-67" x="915.03125"/>
      </g>
     </g>
    </g>
    <g id="xtick_8">
     <g id="line2d_8">
      <g>
       <use xlink:href="#m2af3a79476" x="217.544058" y="273.317812" style="stroke: #000000; stroke-width: 0.8"/>
      </g>
     </g>
     <g id="text_8">
      <!-- Pedalcycles -->
      <g transform="translate(220.303433 338.449062) rotate(-90) scale(0.1 -0.1)">
       <defs>
        <path id="DejaVuSans-79" d="M 2059 -325 
Q 1816 -950 1584 -1140 
Q 1353 -1331 966 -1331 
L 506 -1331 
L 506 -850 
L 844 -850 
Q 1081 -850 1212 -737 
Q 1344 -625 1503 -206 
L 1606 56 
L 191 3500 
L 800 3500 
L 1894 763 
L 2988 3500 
L 3597 3500 
L 2059 -325 
z
" transform="scale(0.015625)"/>
       </defs>
       <use xlink:href="#DejaVuSans-50"/>
       <use xlink:href="#DejaVuSans-65" x="56.677734"/>
       <use xlink:href="#DejaVuSans-64" x="118.201172"/>
       <use xlink:href="#DejaVuSans-61" x="181.677734"/>
       <use xlink:href="#DejaVuSans-6c" x="242.957031"/>
       <use xlink:href="#DejaVuSans-63" x="270.740234"/>
       <use xlink:href="#DejaVuSans-79" x="325.720703"/>
       <use xlink:href="#DejaVuSans-63" x="384.900391"/>
       <use xlink:href="#DejaVuSans-6c" x="439.880859"/>
       <use xlink:href="#DejaVuSans-65" x="467.664062"/>
       <use xlink:href="#DejaVuSans-73" x="529.1875"/>
      </g>
     </g>
    </g>
    <g id="xtick_9">
     <g id="line2d_9">
      <g>
       <use xlink:href="#m2af3a79476" x="240.673591" y="273.317812" style="stroke: #000000; stroke-width: 0.8"/>
      </g>
     </g>
     <g id="text_9">
      <!-- Overturning -->
      <g transform="translate(243.432966 340.367812) rotate(-90) scale(0.1 -0.1)">
       <defs>
        <path id="DejaVuSans-76" d="M 191 3500 
L 800 3500 
L 1894 563 
L 2988 3500 
L 3597 3500 
L 2284 0 
L 1503 0 
L 191 3500 
z
" transform="scale(0.015625)"/>
       </defs>
       <use xlink:href="#DejaVuSans-4f"/>
       <use xlink:href="#DejaVuSans-76" x="78.710938"/>
       <use xlink:href="#DejaVuSans-65" x="137.890625"/>
       <use xlink:href="#DejaVuSans-72" x="199.414062"/>
       <use xlink:href="#DejaVuSans-74" x="240.527344"/>
       <use xlink:href="#DejaVuSans-75" x="279.736328"/>
       <use xlink:href="#DejaVuSans-72" x="343.115234"/>
       <use xlink:href="#DejaVuSans-6e" x="382.478516"/>
       <use xlink:href="#DejaVuSans-69" x="445.857422"/>
       <use xlink:href="#DejaVuSans-6e" x="473.640625"/>
       <use xlink:href="#DejaVuSans-67" x="537.019531"/>
      </g>
     </g>
    </g>
    <g id="xtick_10">
     <g id="line2d_10">
      <g>
       <use xlink:href="#m2af3a79476" x="263.803125" y="273.317812" style="stroke: #000000; stroke-width: 0.8"/>
      </g>
     </g>
     <g id="text_10">
      <!-- Parked Vehicle -->
      <g transform="translate(266.5625 353.008437) rotate(-90) scale(0.1 -0.1)">
       <defs>
        <path id="DejaVuSans-6b" d="M 581 4863 
L 1159 4863 
L 1159 1991 
L 2875 3500 
L 3609 3500 
L 1753 1863 
L 3688 0 
L 2938 0 
L 1159 1709 
L 1159 0 
L 581 0 
L 581 4863 
z
" transform="scale(0.015625)"/>
        <path id="DejaVuSans-56" d="M 1831 0 
L 50 4666 
L 709 4666 
L 2188 738 
L 3669 4666 
L 4325 4666 
L 2547 0 
L 1831 0 
z
" transform="scale(0.015625)"/>
        <path id="DejaVuSans-68" d="M 3513 2113 
L 3513 0 
L 2938 0 
L 2938 2094 
Q 2938 2591 2744 2837 
Q 2550 3084 2163 3084 
Q 1697 3084 1428 2787 
Q 1159 2491 1159 1978 
L 1159 0 
L 581 0 
L 581 4863 
L 1159 4863 
L 1159 2956 
Q 1366 3272 1645 3428 
Q 1925 3584 2291 3584 
Q 2894 3584 3203 3211 
Q 3513 2838 3513 2113 
z
" transform="scale(0.015625)"/>
       </defs>
       <use xlink:href="#DejaVuSans-50"/>
       <use xlink:href="#DejaVuSans-61" x="55.802734"/>
       <use xlink:href="#DejaVuSans-72" x="117.082031"/>
       <use xlink:href="#DejaVuSans-6b" x="158.195312"/>
       <use xlink:href="#DejaVuSans-65" x="212.480469"/>
       <use xlink:href="#DejaVuSans-64" x="274.003906"/>
       <use xlink:href="#DejaVuSans-20" x="337.480469"/>
       <use xlink:href="#DejaVuSans-56" x="369.267578"/>
       <use xlink:href="#DejaVuSans-65" x="429.925781"/>
       <use xlink:href="#DejaVuSans-68" x="491.449219"/>
       <use xlink:href="#DejaVuSans-69" x="554.828125"/>
       <use xlink:href="#DejaVuSans-63" x="582.611328"/>
       <use xlink:href="#DejaVuSans-6c" x="637.591797"/>
       <use xlink:href="#DejaVuSans-65" x="665.375"/>
      </g>
     </g>
    </g>
    <g id="xtick_11">
     <g id="line2d_11">
      <g>
       <use xlink:href="#m2af3a79476" x="286.932659" y="273.317812" style="stroke: #000000; stroke-width: 0.8"/>
      </g>
     </g>
     <g id="text_11">
      <!-- Other Non-Collision -->
      <g transform="translate(289.692034 377.314687) rotate(-90) scale(0.1 -0.1)">
       <defs>
        <path id="DejaVuSans-4e" d="M 628 4666 
L 1478 4666 
L 3547 763 
L 3547 4666 
L 4159 4666 
L 4159 0 
L 3309 0 
L 1241 3903 
L 1241 0 
L 628 0 
L 628 4666 
z
" transform="scale(0.015625)"/>
        <path id="DejaVuSans-6f" d="M 1959 3097 
Q 1497 3097 1228 2736 
Q 959 2375 959 1747 
Q 959 1119 1226 758 
Q 1494 397 1959 397 
Q 2419 397 2687 759 
Q 2956 1122 2956 1747 
Q 2956 2369 2687 2733 
Q 2419 3097 1959 3097 
z
M 1959 3584 
Q 2709 3584 3137 3096 
Q 3566 2609 3566 1747 
Q 3566 888 3137 398 
Q 2709 -91 1959 -91 
Q 1206 -91 779 398 
Q 353 888 353 1747 
Q 353 2609 779 3096 
Q 1206 3584 1959 3584 
z
" transform="scale(0.015625)"/>
        <path id="DejaVuSans-43" d="M 4122 4306 
L 4122 3641 
Q 3803 3938 3442 4084 
Q 3081 4231 2675 4231 
Q 1875 4231 1450 3742 
Q 1025 3253 1025 2328 
Q 1025 1406 1450 917 
Q 1875 428 2675 428 
Q 3081 428 3442 575 
Q 3803 722 4122 1019 
L 4122 359 
Q 3791 134 3420 21 
Q 3050 -91 2638 -91 
Q 1578 -91 968 557 
Q 359 1206 359 2328 
Q 359 3453 968 4101 
Q 1578 4750 2638 4750 
Q 3056 4750 3426 4639 
Q 3797 4528 4122 4306 
z
" transform="scale(0.015625)"/>
       </defs>
       <use xlink:href="#DejaVuSans-4f"/>
       <use xlink:href="#DejaVuSans-74" x="78.710938"/>
       <use xlink:href="#DejaVuSans-68" x="117.919922"/>
       <use xlink:href="#DejaVuSans-65" x="181.298828"/>
       <use xlink:href="#DejaVuSans-72" x="242.822266"/>
       <use xlink:href="#DejaVuSans-20" x="283.935547"/>
       <use xlink:href="#DejaVuSans-4e" x="315.722656"/>
       <use xlink:href="#DejaVuSans-6f" x="390.527344"/>
       <use xlink:href="#DejaVuSans-6e" x="451.708984"/>
       <use xlink:href="#DejaVuSans-2d" x="515.087891"/>
       <use xlink:href="#DejaVuSans-43" x="551.171875"/>
       <use xlink:href="#DejaVuSans-6f" x="620.996094"/>
       <use xlink:href="#DejaVuSans-6c" x="682.177734"/>
       <use xlink:href="#DejaVuSans-6c" x="709.960938"/>
       <use xlink:href="#DejaVuSans-69" x="737.744141"/>
       <use xlink:href="#DejaVuSans-73" x="765.527344"/>
       <use xlink:href="#DejaVuSans-69" x="817.626953"/>
       <use xlink:href="#DejaVuSans-6f" x="845.410156"/>
       <use xlink:href="#DejaVuSans-6e" x="906.591797"/>
      </g>
     </g>
    </g>
    <g id="xtick_12">
     <g id="line2d_12">
      <g>
       <use xlink:href="#m2af3a79476" x="310.062192" y="273.317812" style="stroke: #000000; stroke-width: 0.8"/>
      </g>
     </g>
     <g id="text_12">
      <!-- Right Turn -->
      <g transform="translate(312.821567 331.035) rotate(-90) scale(0.1 -0.1)">
       <use xlink:href="#DejaVuSans-52"/>
       <use xlink:href="#DejaVuSans-69" x="69.482422"/>
       <use xlink:href="#DejaVuSans-67" x="97.265625"/>
       <use xlink:href="#DejaVuSans-68" x="160.742188"/>
       <use xlink:href="#DejaVuSans-74" x="224.121094"/>
       <use xlink:href="#DejaVuSans-20" x="263.330078"/>
       <use xlink:href="#DejaVuSans-54" x="295.117188"/>
       <use xlink:href="#DejaVuSans-75" x="341.076172"/>
       <use xlink:href="#DejaVuSans-72" x="404.455078"/>
       <use xlink:href="#DejaVuSans-6e" x="443.818359"/>
      </g>
     </g>
    </g>
    <g id="xtick_13">
     <g id="line2d_13">
      <g>
       <use xlink:href="#m2af3a79476" x="333.191726" y="273.317812" style="stroke: #000000; stroke-width: 0.8"/>
      </g>
     </g>
     <g id="text_13">
      <!-- Animal -->
      <g transform="translate(335.951101 314.920937) rotate(-90) scale(0.1 -0.1)">
       <defs>
        <path id="DejaVuSans-6d" d="M 3328 2828 
Q 3544 3216 3844 3400 
Q 4144 3584 4550 3584 
Q 5097 3584 5394 3201 
Q 5691 2819 5691 2113 
L 5691 0 
L 5113 0 
L 5113 2094 
Q 5113 2597 4934 2840 
Q 4756 3084 4391 3084 
Q 3944 3084 3684 2787 
Q 3425 2491 3425 1978 
L 3425 0 
L 2847 0 
L 2847 2094 
Q 2847 2600 2669 2842 
Q 2491 3084 2119 3084 
Q 1678 3084 1418 2786 
Q 1159 2488 1159 1978 
L 1159 0 
L 581 0 
L 581 3500 
L 1159 3500 
L 1159 2956 
Q 1356 3278 1631 3431 
Q 1906 3584 2284 3584 
Q 2666 3584 2933 3390 
Q 3200 3197 3328 2828 
z
" transform="scale(0.015625)"/>
       </defs>
       <use xlink:href="#DejaVuSans-41"/>
       <use xlink:href="#DejaVuSans-6e" x="68.408203"/>
       <use xlink:href="#DejaVuSans-69" x="131.787109"/>
       <use xlink:href="#DejaVuSans-6d" x="159.570312"/>
       <use xlink:href="#DejaVuSans-61" x="256.982422"/>
       <use xlink:href="#DejaVuSans-6c" x="318.261719"/>
      </g>
     </g>
    </g>
    <g id="xtick_14">
     <g id="line2d_14">
      <g>
       <use xlink:href="#m2af3a79476" x="356.32126" y="273.317812" style="stroke: #000000; stroke-width: 0.8"/>
      </g>
     </g>
     <g id="text_14">
      <!-- Unknown -->
      <g transform="translate(359.080635 326.736562) rotate(-90) scale(0.1 -0.1)">
       <defs>
        <path id="DejaVuSans-55" d="M 556 4666 
L 1191 4666 
L 1191 1831 
Q 1191 1081 1462 751 
Q 1734 422 2344 422 
Q 2950 422 3222 751 
Q 3494 1081 3494 1831 
L 3494 4666 
L 4128 4666 
L 4128 1753 
Q 4128 841 3676 375 
Q 3225 -91 2344 -91 
Q 1459 -91 1007 375 
Q 556 841 556 1753 
L 556 4666 
z
" transform="scale(0.015625)"/>
       </defs>
       <use xlink:href="#DejaVuSans-55"/>
       <use xlink:href="#DejaVuSans-6e" x="73.193359"/>
       <use xlink:href="#DejaVuSans-6b" x="136.572266"/>
       <use xlink:href="#DejaVuSans-6e" x="194.482422"/>
       <use xlink:href="#DejaVuSans-6f" x="257.861328"/>
       <use xlink:href="#DejaVuSans-77" x="319.042969"/>
       <use xlink:href="#DejaVuSans-6e" x="400.830078"/>
      </g>
     </g>
    </g>
    <g id="xtick_15">
     <g id="line2d_15">
      <g>
       <use xlink:href="#m2af3a79476" x="379.450793" y="273.317812" style="stroke: #000000; stroke-width: 0.8"/>
      </g>
     </g>
     <g id="text_15">
      <!-- Other Object -->
      <g transform="translate(382.210168 344.46) rotate(-90) scale(0.1 -0.1)">
       <use xlink:href="#DejaVuSans-4f"/>
       <use xlink:href="#DejaVuSans-74" x="78.710938"/>
       <use xlink:href="#DejaVuSans-68" x="117.919922"/>
       <use xlink:href="#DejaVuSans-65" x="181.298828"/>
       <use xlink:href="#DejaVuSans-72" x="242.822266"/>
       <use xlink:href="#DejaVuSans-20" x="283.935547"/>
       <use xlink:href="#DejaVuSans-4f" x="315.722656"/>
       <use xlink:href="#DejaVuSans-62" x="394.433594"/>
       <use xlink:href="#DejaVuSans-6a" x="457.910156"/>
       <use xlink:href="#DejaVuSans-65" x="485.693359"/>
       <use xlink:href="#DejaVuSans-63" x="547.216797"/>
       <use xlink:href="#DejaVuSans-74" x="602.197266"/>
      </g>
     </g>
    </g>
    <g id="xtick_16">
     <g id="line2d_16">
      <g>
       <use xlink:href="#m2af3a79476" x="402.580327" y="273.317812" style="stroke: #000000; stroke-width: 0.8"/>
      </g>
     </g>
     <g id="text_16">
      <!-- Backing -->
      <g transform="translate(405.339702 320.06) rotate(-90) scale(0.1 -0.1)">
       <defs>
        <path id="DejaVuSans-42" d="M 1259 2228 
L 1259 519 
L 2272 519 
Q 2781 519 3026 730 
Q 3272 941 3272 1375 
Q 3272 1813 3026 2020 
Q 2781 2228 2272 2228 
L 1259 2228 
z
M 1259 4147 
L 1259 2741 
L 2194 2741 
Q 2656 2741 2882 2914 
Q 3109 3088 3109 3444 
Q 3109 3797 2882 3972 
Q 2656 4147 2194 4147 
L 1259 4147 
z
M 628 4666 
L 2241 4666 
Q 2963 4666 3353 4366 
Q 3744 4066 3744 3513 
Q 3744 3084 3544 2831 
Q 3344 2578 2956 2516 
Q 3422 2416 3680 2098 
Q 3938 1781 3938 1306 
Q 3938 681 3513 340 
Q 3088 0 2303 0 
L 628 0 
L 628 4666 
z
" transform="scale(0.015625)"/>
       </defs>
       <use xlink:href="#DejaVuSans-42"/>
       <use xlink:href="#DejaVuSans-61" x="68.603516"/>
       <use xlink:href="#DejaVuSans-63" x="129.882812"/>
       <use xlink:href="#DejaVuSans-6b" x="184.863281"/>
       <use xlink:href="#DejaVuSans-69" x="242.773438"/>
       <use xlink:href="#DejaVuSans-6e" x="270.556641"/>
       <use xlink:href="#DejaVuSans-67" x="333.935547"/>
      </g>
     </g>
    </g>
    <g id="xtick_17">
     <g id="line2d_17">
      <g>
       <use xlink:href="#m2af3a79476" x="425.709861" y="273.317812" style="stroke: #000000; stroke-width: 0.8"/>
      </g>
     </g>
     <g id="text_17">
      <!-- Falling From Or In Vehicle -->
      <g transform="translate(428.469236 406.824062) rotate(-90) scale(0.1 -0.1)">
       <defs>
        <path id="DejaVuSans-49" d="M 628 4666 
L 1259 4666 
L 1259 0 
L 628 0 
L 628 4666 
z
" transform="scale(0.015625)"/>
       </defs>
       <use xlink:href="#DejaVuSans-46"/>
       <use xlink:href="#DejaVuSans-61" x="48.394531"/>
       <use xlink:href="#DejaVuSans-6c" x="109.673828"/>
       <use xlink:href="#DejaVuSans-6c" x="137.457031"/>
       <use xlink:href="#DejaVuSans-69" x="165.240234"/>
       <use xlink:href="#DejaVuSans-6e" x="193.023438"/>
       <use xlink:href="#DejaVuSans-67" x="256.402344"/>
       <use xlink:href="#DejaVuSans-20" x="319.878906"/>
       <use xlink:href="#DejaVuSans-46" x="351.666016"/>
       <use xlink:href="#DejaVuSans-72" x="401.935547"/>
       <use xlink:href="#DejaVuSans-6f" x="440.798828"/>
       <use xlink:href="#DejaVuSans-6d" x="501.980469"/>
       <use xlink:href="#DejaVuSans-20" x="599.392578"/>
       <use xlink:href="#DejaVuSans-4f" x="631.179688"/>
       <use xlink:href="#DejaVuSans-72" x="709.890625"/>
       <use xlink:href="#DejaVuSans-20" x="751.003906"/>
       <use xlink:href="#DejaVuSans-49" x="782.791016"/>
       <use xlink:href="#DejaVuSans-6e" x="812.283203"/>
       <use xlink:href="#DejaVuSans-20" x="875.662109"/>
       <use xlink:href="#DejaVuSans-56" x="907.449219"/>
       <use xlink:href="#DejaVuSans-65" x="968.107422"/>
       <use xlink:href="#DejaVuSans-68" x="1029.630859"/>
       <use xlink:href="#DejaVuSans-69" x="1093.009766"/>
       <use xlink:href="#DejaVuSans-63" x="1120.792969"/>
       <use xlink:href="#DejaVuSans-6c" x="1175.773438"/>
       <use xlink:href="#DejaVuSans-65" x="1203.556641"/>
      </g>
     </g>
    </g>
    <g id="xtick_18">
     <g id="line2d_18">
      <g>
       <use xlink:href="#m2af3a79476" x="448.839394" y="273.317812" style="stroke: #000000; stroke-width: 0.8"/>
      </g>
     </g>
     <g id="text_18">
      <!-- Sideswipe - Meeting -->
      <g transform="translate(451.598769 380.895937) rotate(-90) scale(0.1 -0.1)">
       <defs>
        <path id="DejaVuSans-4d" d="M 628 4666 
L 1569 4666 
L 2759 1491 
L 3956 4666 
L 4897 4666 
L 4897 0 
L 4281 0 
L 4281 4097 
L 3078 897 
L 2444 897 
L 1241 4097 
L 1241 0 
L 628 0 
L 628 4666 
z
" transform="scale(0.015625)"/>
       </defs>
       <use xlink:href="#DejaVuSans-53"/>
       <use xlink:href="#DejaVuSans-69" x="63.476562"/>
       <use xlink:href="#DejaVuSans-64" x="91.259766"/>
       <use xlink:href="#DejaVuSans-65" x="154.736328"/>
       <use xlink:href="#DejaVuSans-73" x="216.259766"/>
       <use xlink:href="#DejaVuSans-77" x="268.359375"/>
       <use xlink:href="#DejaVuSans-69" x="350.146484"/>
       <use xlink:href="#DejaVuSans-70" x="377.929688"/>
       <use xlink:href="#DejaVuSans-65" x="441.40625"/>
       <use xlink:href="#DejaVuSans-20" x="502.929688"/>
       <use xlink:href="#DejaVuSans-2d" x="534.716797"/>
       <use xlink:href="#DejaVuSans-20" x="570.800781"/>
       <use xlink:href="#DejaVuSans-4d" x="602.587891"/>
       <use xlink:href="#DejaVuSans-65" x="688.867188"/>
       <use xlink:href="#DejaVuSans-65" x="750.390625"/>
       <use xlink:href="#DejaVuSans-74" x="811.914062"/>
       <use xlink:href="#DejaVuSans-69" x="851.123047"/>
       <use xlink:href="#DejaVuSans-6e" x="878.90625"/>
       <use xlink:href="#DejaVuSans-67" x="942.285156"/>
      </g>
     </g>
    </g>
    <g id="xtick_19">
     <g id="line2d_19">
      <g>
       <use xlink:href="#m2af3a79476" x="471.968928" y="273.317812" style="stroke: #000000; stroke-width: 0.8"/>
      </g>
     </g>
     <g id="text_19">
      <!-- Train -->
      <g transform="translate(474.728303 304.305312) rotate(-90) scale(0.1 -0.1)">
       <use xlink:href="#DejaVuSans-54"/>
       <use xlink:href="#DejaVuSans-72" x="46.333984"/>
       <use xlink:href="#DejaVuSans-61" x="87.447266"/>
       <use xlink:href="#DejaVuSans-69" x="148.726562"/>
       <use xlink:href="#DejaVuSans-6e" x="176.509766"/>
      </g>
     </g>
    </g>
   </g>
   <g id="matplotlib.axis_2">
    <g id="ytick_1">
     <g id="line2d_20">
      <path d="M 40.603125 273.317812 
L 487.003125 273.317812 
" clip-path="url(#p9ef0299568)" style="fill: none; stroke: #d3d3d3; stroke-width: 0.8; stroke-linecap: square"/>
     </g>
     <g id="line2d_21">
      <defs>
       <path id="m14fd397981" d="M 0 0 
L -3.5 0 
" style="stroke: #000000; stroke-width: 0.8"/>
      </defs>
      <g>
       <use xlink:href="#m14fd397981" x="40.603125" y="273.317812" style="stroke: #000000; stroke-width: 0.8"/>
      </g>
     </g>
     <g id="text_20">
      <!-- 0 -->
      <g transform="translate(27.240625 277.117031) scale(0.1 -0.1)">
       <defs>
        <path id="DejaVuSans-30" d="M 2034 4250 
Q 1547 4250 1301 3770 
Q 1056 3291 1056 2328 
Q 1056 1369 1301 889 
Q 1547 409 2034 409 
Q 2525 409 2770 889 
Q 3016 1369 3016 2328 
Q 3016 3291 2770 3770 
Q 2525 4250 2034 4250 
z
M 2034 4750 
Q 2819 4750 3233 4129 
Q 3647 3509 3647 2328 
Q 3647 1150 3233 529 
Q 2819 -91 2034 -91 
Q 1250 -91 836 529 
Q 422 1150 422 2328 
Q 422 3509 836 4129 
Q 1250 4750 2034 4750 
z
" transform="scale(0.015625)"/>
       </defs>
       <use xlink:href="#DejaVuSans-30"/>
      </g>
     </g>
    </g>
    <g id="ytick_2">
     <g id="line2d_22">
      <path d="M 40.603125 231.737812 
L 487.003125 231.737812 
" clip-path="url(#p9ef0299568)" style="fill: none; stroke: #d3d3d3; stroke-width: 0.8; stroke-linecap: square"/>
     </g>
     <g id="line2d_23">
      <g>
       <use xlink:href="#m14fd397981" x="40.603125" y="231.737812" style="stroke: #000000; stroke-width: 0.8"/>
      </g>
     </g>
     <g id="text_21">
      <!-- 5 -->
      <g transform="translate(27.240625 235.537031) scale(0.1 -0.1)">
       <defs>
        <path id="DejaVuSans-35" d="M 691 4666 
L 3169 4666 
L 3169 4134 
L 1269 4134 
L 1269 2991 
Q 1406 3038 1543 3061 
Q 1681 3084 1819 3084 
Q 2600 3084 3056 2656 
Q 3513 2228 3513 1497 
Q 3513 744 3044 326 
Q 2575 -91 1722 -91 
Q 1428 -91 1123 -41 
Q 819 9 494 109 
L 494 744 
Q 775 591 1075 516 
Q 1375 441 1709 441 
Q 2250 441 2565 725 
Q 2881 1009 2881 1497 
Q 2881 1984 2565 2268 
Q 2250 2553 1709 2553 
Q 1456 2553 1204 2497 
Q 953 2441 691 2322 
L 691 4666 
z
" transform="scale(0.015625)"/>
       </defs>
       <use xlink:href="#DejaVuSans-35"/>
      </g>
     </g>
    </g>
    <g id="ytick_3">
     <g id="line2d_24">
      <path d="M 40.603125 190.157812 
L 487.003125 190.157812 
" clip-path="url(#p9ef0299568)" style="fill: none; stroke: #d3d3d3; stroke-width: 0.8; stroke-linecap: square"/>
     </g>
     <g id="line2d_25">
      <g>
       <use xlink:href="#m14fd397981" x="40.603125" y="190.157812" style="stroke: #000000; stroke-width: 0.8"/>
      </g>
     </g>
     <g id="text_22">
      <!-- 10 -->
      <g transform="translate(20.878125 193.957031) scale(0.1 -0.1)">
       <defs>
        <path id="DejaVuSans-31" d="M 794 531 
L 1825 531 
L 1825 4091 
L 703 3866 
L 703 4441 
L 1819 4666 
L 2450 4666 
L 2450 531 
L 3481 531 
L 3481 0 
L 794 0 
L 794 531 
z
" transform="scale(0.015625)"/>
       </defs>
       <use xlink:href="#DejaVuSans-31"/>
       <use xlink:href="#DejaVuSans-30" x="63.623047"/>
      </g>
     </g>
    </g>
    <g id="ytick_4">
     <g id="line2d_26">
      <path d="M 40.603125 148.577812 
L 487.003125 148.577812 
" clip-path="url(#p9ef0299568)" style="fill: none; stroke: #d3d3d3; stroke-width: 0.8; stroke-linecap: square"/>
     </g>
     <g id="line2d_27">
      <g>
       <use xlink:href="#m14fd397981" x="40.603125" y="148.577812" style="stroke: #000000; stroke-width: 0.8"/>
      </g>
     </g>
     <g id="text_23">
      <!-- 15 -->
      <g transform="translate(20.878125 152.377031) scale(0.1 -0.1)">
       <use xlink:href="#DejaVuSans-31"/>
       <use xlink:href="#DejaVuSans-35" x="63.623047"/>
      </g>
     </g>
    </g>
    <g id="ytick_5">
     <g id="line2d_28">
      <path d="M 40.603125 106.997812 
L 487.003125 106.997812 
" clip-path="url(#p9ef0299568)" style="fill: none; stroke: #d3d3d3; stroke-width: 0.8; stroke-linecap: square"/>
     </g>
     <g id="line2d_29">
      <g>
       <use xlink:href="#m14fd397981" x="40.603125" y="106.997812" style="stroke: #000000; stroke-width: 0.8"/>
      </g>
     </g>
     <g id="text_24">
      <!-- 20 -->
      <g transform="translate(20.878125 110.797031) scale(0.1 -0.1)">
       <defs>
        <path id="DejaVuSans-32" d="M 1228 531 
L 3431 531 
L 3431 0 
L 469 0 
L 469 531 
Q 828 903 1448 1529 
Q 2069 2156 2228 2338 
Q 2531 2678 2651 2914 
Q 2772 3150 2772 3378 
Q 2772 3750 2511 3984 
Q 2250 4219 1831 4219 
Q 1534 4219 1204 4116 
Q 875 4013 500 3803 
L 500 4441 
Q 881 4594 1212 4672 
Q 1544 4750 1819 4750 
Q 2544 4750 2975 4387 
Q 3406 4025 3406 3419 
Q 3406 3131 3298 2873 
Q 3191 2616 2906 2266 
Q 2828 2175 2409 1742 
Q 1991 1309 1228 531 
z
" transform="scale(0.015625)"/>
       </defs>
       <use xlink:href="#DejaVuSans-32"/>
       <use xlink:href="#DejaVuSans-30" x="63.623047"/>
      </g>
     </g>
    </g>
    <g id="ytick_6">
     <g id="line2d_30">
      <path d="M 40.603125 65.417812 
L 487.003125 65.417812 
" clip-path="url(#p9ef0299568)" style="fill: none; stroke: #d3d3d3; stroke-width: 0.8; stroke-linecap: square"/>
     </g>
     <g id="line2d_31">
      <g>
       <use xlink:href="#m14fd397981" x="40.603125" y="65.417812" style="stroke: #000000; stroke-width: 0.8"/>
      </g>
     </g>
     <g id="text_25">
      <!-- 25 -->
      <g transform="translate(20.878125 69.217031) scale(0.1 -0.1)">
       <use xlink:href="#DejaVuSans-32"/>
       <use xlink:href="#DejaVuSans-35" x="63.623047"/>
      </g>
     </g>
    </g>
    <g id="ytick_7">
     <g id="line2d_32">
      <path d="M 40.603125 23.837812 
L 487.003125 23.837812 
" clip-path="url(#p9ef0299568)" style="fill: none; stroke: #d3d3d3; stroke-width: 0.8; stroke-linecap: square"/>
     </g>
     <g id="line2d_33">
      <g>
       <use xlink:href="#m14fd397981" x="40.603125" y="23.837812" style="stroke: #000000; stroke-width: 0.8"/>
      </g>
     </g>
     <g id="text_26">
      <!-- 30 -->
      <g transform="translate(20.878125 27.637031) scale(0.1 -0.1)">
       <defs>
        <path id="DejaVuSans-33" d="M 2597 2516 
Q 3050 2419 3304 2112 
Q 3559 1806 3559 1356 
Q 3559 666 3084 287 
Q 2609 -91 1734 -91 
Q 1441 -91 1130 -33 
Q 819 25 488 141 
L 488 750 
Q 750 597 1062 519 
Q 1375 441 1716 441 
Q 2309 441 2620 675 
Q 2931 909 2931 1356 
Q 2931 1769 2642 2001 
Q 2353 2234 1838 2234 
L 1294 2234 
L 1294 2753 
L 1863 2753 
Q 2328 2753 2575 2939 
Q 2822 3125 2822 3475 
Q 2822 3834 2567 4026 
Q 2313 4219 1838 4219 
Q 1578 4219 1281 4162 
Q 984 4106 628 3988 
L 628 4550 
Q 988 4650 1302 4700 
Q 1616 4750 1894 4750 
Q 2613 4750 3031 4423 
Q 3450 4097 3450 3541 
Q 3450 3153 3228 2886 
Q 3006 2619 2597 2516 
z
" transform="scale(0.015625)"/>
       </defs>
       <use xlink:href="#DejaVuSans-33"/>
       <use xlink:href="#DejaVuSans-30" x="63.623047"/>
      </g>
     </g>
    </g>
    <g id="text_27">
     <!-- Percent of crashes -->
     <g transform="translate(14.798438 194.706719) rotate(-90) scale(0.1 -0.1)">
      <use xlink:href="#DejaVuSans-50"/>
      <use xlink:href="#DejaVuSans-65" x="56.677734"/>
      <use xlink:href="#DejaVuSans-72" x="118.201172"/>
      <use xlink:href="#DejaVuSans-63" x="157.064453"/>
      <use xlink:href="#DejaVuSans-65" x="212.044922"/>
      <use xlink:href="#DejaVuSans-6e" x="273.568359"/>
      <use xlink:href="#DejaVuSans-74" x="336.947266"/>
      <use xlink:href="#DejaVuSans-20" x="376.15625"/>
      <use xlink:href="#DejaVuSans-6f" x="407.943359"/>
      <use xlink:href="#DejaVuSans-66" x="469.125"/>
      <use xlink:href="#DejaVuSans-20" x="504.330078"/>
      <use xlink:href="#DejaVuSans-63" x="536.117188"/>
      <use xlink:href="#DejaVuSans-72" x="591.097656"/>
      <use xlink:href="#DejaVuSans-61" x="632.210938"/>
      <use xlink:href="#DejaVuSans-73" x="693.490234"/>
      <use xlink:href="#DejaVuSans-68" x="745.589844"/>
      <use xlink:href="#DejaVuSans-65" x="808.96875"/>
      <use xlink:href="#DejaVuSans-73" x="870.492188"/>
     </g>
    </g>
   </g>
   <g id="patch_3">
    <path d="M 46.385508 273.317812 
L 52.553384 273.317812 
L 52.553384 53.787043 
L 46.385508 53.787043 
z
" clip-path="url(#p9ef0299568)" style="fill: #cc1414"/>
   </g>
   <g id="patch_4">
    <path d="M 69.515042 273.317812 
L 75.682918 273.317812 
L 75.682918 68.325505 
L 69.515042 68.325505 
z
" clip-path="url(#p9ef0299568)" style="fill: #cc1414"/>
   </g>
   <g id="patch_5">
    <path d="M 92.644576 273.317812 
L 98.812451 273.317812 
L 98.812451 186.087043 
L 92.644576 186.087043 
z
" clip-path="url(#p9ef0299568)" style="fill: #cc1414"/>
   </g>
   <g id="patch_6">
    <path d="M 115.774109 273.317812 
L 121.941985 273.317812 
L 121.941985 190.448582 
L 115.774109 190.448582 
z
" clip-path="url(#p9ef0299568)" style="fill: #cc1414"/>
   </g>
   <g id="patch_7">
    <path d="M 138.903643 273.317812 
L 145.071519 273.317812 
L 145.071519 212.256274 
L 138.903643 212.256274 
z
" clip-path="url(#p9ef0299568)" style="fill: #cc1414"/>
   </g>
   <g id="patch_8">
    <path d="M 162.033177 273.317812 
L 168.201052 273.317812 
L 168.201052 218.071659 
L 162.033177 218.071659 
z
" clip-path="url(#p9ef0299568)" style="fill: #cc1414"/>
   </g>
   <g id="patch_9">
    <path d="M 185.16271 273.317812 
L 191.330586 273.317812 
L 191.330586 225.340889 
L 185.16271 225.340889 
z
" clip-path="url(#p9ef0299568)" style="fill: #cc1414"/>
   </g>
   <g id="patch_10">
    <path d="M 208.292244 273.317812 
L 214.46012 273.317812 
L 214.46012 252.963966 
L 208.292244 252.963966 
z
" clip-path="url(#p9ef0299568)" style="fill: #cc1414"/>
   </g>
   <g id="patch_11">
    <path d="M 231.421778 273.317812 
L 237.589653 273.317812 
L 237.589653 258.779351 
L 231.421778 258.779351 
z
" clip-path="url(#p9ef0299568)" style="fill: #cc1414"/>
   </g>
   <g id="patch_12">
    <path d="M 254.551312 273.317812 
L 260.719187 273.317812 
L 260.719187 260.233197 
L 254.551312 260.233197 
z
" clip-path="url(#p9ef0299568)" style="fill: #cc1414"/>
   </g>
   <g id="patch_13">
    <path d="M 277.680845 273.317812 
L 283.848721 273.317812 
L 283.848721 263.140889 
L 277.680845 263.140889 
z
" clip-path="url(#p9ef0299568)" style="fill: #cc1414"/>
   </g>
   <g id="patch_14">
    <path d="M 300.810379 273.317812 
L 306.978255 273.317812 
L 306.978255 267.502428 
L 300.810379 267.502428 
z
" clip-path="url(#p9ef0299568)" style="fill: #cc1414"/>
   </g>
   <g id="patch_15">
    <path d="M 323.939913 273.317812 
L 330.107788 273.317812 
L 330.107788 268.956274 
L 323.939913 268.956274 
z
" clip-path="url(#p9ef0299568)" style="fill: #cc1414"/>
   </g>
   <g id="patch_16">
    <path d="M 347.069446 273.317812 
L 353.237322 273.317812 
L 353.237322 270.41012 
L 347.069446 270.41012 
z
" clip-path="url(#p9ef0299568)" style="fill: #cc1414"/>
   </g>
   <g id="patch_17">
    <path d="M 370.19898 273.317812 
L 376.366856 273.317812 
L 376.366856 271.863966 
L 370.19898 271.863966 
z
" clip-path="url(#p9ef0299568)" style="fill: #cc1414"/>
   </g>
   <g id="patch_18">
    <path d="M 393.328514 273.317812 
L 399.496389 273.317812 
L 399.496389 273.317812 
L 393.328514 273.317812 
z
" clip-path="url(#p9ef0299568)" style="fill: #cc1414"/>
   </g>
   <g id="patch_19">
    <path d="M 416.458047 273.317812 
L 422.625923 273.317812 
L 422.625923 273.317812 
L 416.458047 273.317812 
z
" clip-path="url(#p9ef0299568)" style="fill: #cc1414"/>
   </g>
   <g id="patch_20">
    <path d="M 439.587581 273.317812 
L 445.755457 273.317812 
L 445.755457 273.317812 
L 439.587581 273.317812 
z
" clip-path="url(#p9ef0299568)" style="fill: #cc1414"/>
   </g>
   <g id="patch_21">
    <path d="M 462.717115 273.317812 
L 468.88499 273.317812 
L 468.88499 273.317812 
L 462.717115 273.317812 
z
" clip-path="url(#p9ef0299568)" style="fill: #cc1414"/>
   </g>
   <g id="patch_22">
    <path d="M 52.553384 273.317812 
L 58.72126 273.317812 
L 58.72126 144.734769 
L 52.553384 144.734769 
z
" clip-path="url(#p9ef0299568)" style="fill: #f7b602"/>
   </g>
   <g id="patch_23">
    <path d="M 75.682918 273.317812 
L 81.850793 273.317812 
L 81.850793 112.372295 
L 75.682918 112.372295 
z
" clip-path="url(#p9ef0299568)" style="fill: #f7b602"/>
   </g>
   <g id="patch_24">
    <path d="M 98.812451 273.317812 
L 104.980327 273.317812 
L 104.980327 203.102802 
L 98.812451 203.102802 
z
" clip-path="url(#p9ef0299568)" style="fill: #f7b602"/>
   </g>
   <g id="patch_25">
    <path d="M 121.941985 273.317812 
L 128.109861 273.317812 
L 128.109861 131.731989 
L 121.941985 131.731989 
z
" clip-path="url(#p9ef0299568)" style="fill: #f7b602"/>
   </g>
   <g id="patch_26">
    <path d="M 145.071519 273.317812 
L 151.239394 273.317812 
L 151.239394 207.726013 
L 145.071519 207.726013 
z
" clip-path="url(#p9ef0299568)" style="fill: #f7b602"/>
   </g>
   <g id="patch_27">
    <path d="M 168.201052 273.317812 
L 174.368928 273.317812 
L 174.368928 179.408848 
L 168.201052 179.408848 
z
" clip-path="url(#p9ef0299568)" style="fill: #f7b602"/>
   </g>
   <g id="patch_28">
    <path d="M 191.330586 273.317812 
L 197.498462 273.317812 
L 197.498462 208.592865 
L 191.330586 208.592865 
z
" clip-path="url(#p9ef0299568)" style="fill: #f7b602"/>
   </g>
   <g id="patch_29">
    <path d="M 214.46012 273.317812 
L 220.627995 273.317812 
L 220.627995 244.133796 
L 214.46012 244.133796 
z
" clip-path="url(#p9ef0299568)" style="fill: #f7b602"/>
   </g>
   <g id="patch_30">
    <path d="M 237.589653 273.317812 
L 243.757529 273.317812 
L 243.757529 258.581329 
L 237.589653 258.581329 
z
" clip-path="url(#p9ef0299568)" style="fill: #f7b602"/>
   </g>
   <g id="patch_31">
    <path d="M 260.719187 273.317812 
L 266.887063 273.317812 
L 266.887063 250.49071 
L 260.719187 250.49071 
z
" clip-path="url(#p9ef0299568)" style="fill: #f7b602"/>
   </g>
   <g id="patch_32">
    <path d="M 283.848721 273.317812 
L 290.016597 273.317812 
L 290.016597 256.847625 
L 283.848721 256.847625 
z
" clip-path="url(#p9ef0299568)" style="fill: #f7b602"/>
   </g>
   <g id="patch_33">
    <path d="M 306.978255 273.317812 
L 313.14613 273.317812 
L 313.14613 261.470835 
L 306.978255 261.470835 
z
" clip-path="url(#p9ef0299568)" style="fill: #f7b602"/>
   </g>
   <g id="patch_34">
    <path d="M 330.107788 273.317812 
L 336.275664 273.317812 
L 336.275664 272.450961 
L 330.107788 272.450961 
z
" clip-path="url(#p9ef0299568)" style="fill: #f7b602"/>
   </g>
   <g id="patch_35">
    <path d="M 353.237322 273.317812 
L 359.405198 273.317812 
L 359.405198 268.694602 
L 353.237322 268.694602 
z
" clip-path="url(#p9ef0299568)" style="fill: #f7b602"/>
   </g>
   <g id="patch_36">
    <path d="M 376.366856 273.317812 
L 382.534731 273.317812 
L 382.534731 271.295158 
L 376.366856 271.295158 
z
" clip-path="url(#p9ef0299568)" style="fill: #f7b602"/>
   </g>
   <g id="patch_37">
    <path d="M 399.496389 273.317812 
L 405.664265 273.317812 
L 405.664265 270.139355 
L 399.496389 270.139355 
z
" clip-path="url(#p9ef0299568)" style="fill: #f7b602"/>
   </g>
   <g id="patch_38">
    <path d="M 422.625923 273.317812 
L 428.793799 273.317812 
L 428.793799 273.317812 
L 422.625923 273.317812 
z
" clip-path="url(#p9ef0299568)" style="fill: #f7b602"/>
   </g>
   <g id="patch_39">
    <path d="M 445.755457 273.317812 
L 451.923332 273.317812 
L 451.923332 273.317812 
L 445.755457 273.317812 
z
" clip-path="url(#p9ef0299568)" style="fill: #f7b602"/>
   </g>
   <g id="patch_40">
    <path d="M 468.88499 273.317812 
L 475.052866 273.317812 
L 475.052866 273.028862 
L 468.88499 273.028862 
z
" clip-path="url(#p9ef0299568)" style="fill: #f7b602"/>
   </g>
   <g id="patch_41">
    <path d="M 58.72126 273.317812 
L 64.889135 273.317812 
L 64.889135 257.332538 
L 58.72126 257.332538 
z
" clip-path="url(#p9ef0299568)" style="fill: #a8a8a8"/>
   </g>
   <g id="patch_42">
    <path d="M 81.850793 273.317812 
L 88.018669 273.317812 
L 88.018669 174.759684 
L 81.850793 174.759684 
z
" clip-path="url(#p9ef0299568)" style="fill: #a8a8a8"/>
   </g>
   <g id="patch_43">
    <path d="M 104.980327 273.317812 
L 111.148203 273.317812 
L 111.148203 255.73667 
L 104.980327 255.73667 
z
" clip-path="url(#p9ef0299568)" style="fill: #a8a8a8"/>
   </g>
   <g id="patch_44">
    <path d="M 128.109861 273.317812 
L 134.277736 273.317812 
L 134.277736 140.116057 
L 128.109861 140.116057 
z
" clip-path="url(#p9ef0299568)" style="fill: #a8a8a8"/>
   </g>
   <g id="patch_45">
    <path d="M 151.239394 273.317812 
L 157.40727 273.317812 
L 157.40727 214.257409 
L 151.239394 214.257409 
z
" clip-path="url(#p9ef0299568)" style="fill: #a8a8a8"/>
   </g>
   <g id="patch_46">
    <path d="M 174.368928 273.317812 
L 180.536804 273.317812 
L 180.536804 64.565021 
L 174.368928 64.565021 
z
" clip-path="url(#p9ef0299568)" style="fill: #a8a8a8"/>
   </g>
   <g id="patch_47">
    <path d="M 197.498462 273.317812 
L 203.666337 273.317812 
L 203.666337 128.559315 
L 197.498462 128.559315 
z
" clip-path="url(#p9ef0299568)" style="fill: #a8a8a8"/>
   </g>
   <g id="patch_48">
    <path d="M 220.627995 273.317812 
L 226.795871 273.317812 
L 226.795871 267.167072 
L 220.627995 267.167072 
z
" clip-path="url(#p9ef0299568)" style="fill: #a8a8a8"/>
   </g>
   <g id="patch_49">
    <path d="M 243.757529 273.317812 
L 249.925405 273.317812 
L 249.925405 270.352158 
L 243.757529 270.352158 
z
" clip-path="url(#p9ef0299568)" style="fill: #a8a8a8"/>
   </g>
   <g id="patch_50">
    <path d="M 266.887063 273.317812 
L 273.054938 273.317812 
L 273.054938 206.969614 
L 266.887063 206.969614 
z
" clip-path="url(#p9ef0299568)" style="fill: #a8a8a8"/>
   </g>
   <g id="patch_51">
    <path d="M 290.016597 273.317812 
L 296.184472 273.317812 
L 296.184472 264.819817 
L 290.016597 264.819817 
z
" clip-path="url(#p9ef0299568)" style="fill: #a8a8a8"/>
   </g>
   <g id="patch_52">
    <path d="M 313.14613 273.317812 
L 319.314006 273.317812 
L 319.314006 246.141516 
L 313.14613 246.141516 
z
" clip-path="url(#p9ef0299568)" style="fill: #a8a8a8"/>
   </g>
   <g id="patch_53">
    <path d="M 336.275664 273.317812 
L 342.44354 273.317812 
L 342.44354 267.213619 
L 336.275664 267.213619 
z
" clip-path="url(#p9ef0299568)" style="fill: #a8a8a8"/>
   </g>
   <g id="patch_54">
    <path d="M 359.405198 273.317812 
L 365.573073 273.317812 
L 365.573073 269.308195 
L 359.405198 269.308195 
z
" clip-path="url(#p9ef0299568)" style="fill: #a8a8a8"/>
   </g>
   <g id="patch_55">
    <path d="M 382.534731 273.317812 
L 388.702607 273.317812 
L 388.702607 270.551642 
L 382.534731 270.551642 
z
" clip-path="url(#p9ef0299568)" style="fill: #a8a8a8"/>
   </g>
   <g id="patch_56">
    <path d="M 405.664265 273.317812 
L 411.832141 273.317812 
L 411.832141 244.007043 
L 405.664265 244.007043 
z
" clip-path="url(#p9ef0299568)" style="fill: #a8a8a8"/>
   </g>
   <g id="patch_57">
    <path d="M 428.793799 273.317812 
L 434.961674 273.317812 
L 434.961674 273.311163 
L 428.793799 273.311163 
z
" clip-path="url(#p9ef0299568)" style="fill: #a8a8a8"/>
   </g>
   <g id="patch_58">
    <path d="M 451.923332 273.317812 
L 458.091208 273.317812 
L 458.091208 272.998639 
L 451.923332 272.998639 
z
" clip-path="url(#p9ef0299568)" style="fill: #a8a8a8"/>
   </g>
   <g id="patch_59">
    <path d="M 475.052866 273.317812 
L 481.220742 273.317812 
L 481.220742 273.271266 
L 475.052866 273.271266 
z
" clip-path="url(#p9ef0299568)" style="fill: #a8a8a8"/>
   </g>
   <g id="patch_60">
    <path d="M 40.603125 273.317812 
L 40.603125 23.837812 
" style="fill: none; stroke: #000000; stroke-width: 0.8; stroke-linejoin: miter; stroke-linecap: square"/>
   </g>
   <g id="patch_61">
    <path d="M 487.003125 273.317812 
L 487.003125 23.837812 
" style="fill: none; stroke: #000000; stroke-width: 0.8; stroke-linejoin: miter; stroke-linecap: square"/>
   </g>
   <g id="patch_62">
    <path d="M 40.603125 273.317812 
L 487.003125 273.317812 
" style="fill: none; stroke: #000000; stroke-width: 0.8; stroke-linejoin: miter; stroke-linecap: square"/>
   </g>
   <g id="patch_63">
    <path d="M 40.603125 23.837812 
L 487.003125 23.837812 
" style="fill: none; stroke: #000000; stroke-width: 0.8; stroke-linejoin: miter; stroke-linecap: square"/>
   </g>
   <g id="text_28">
    <!-- Crash Severity by Type of Crash - Franklin County -->
    <g transform="translate(90.450312 17.837812) scale(0.14 -0.14)">
     <use xlink:href="#DejaVuSans-43"/>
     <use xlink:href="#DejaVuSans-72" x="69.824219"/>
     <use xlink:href="#DejaVuSans-61" x="110.9375"/>
     <use xlink:href="#DejaVuSans-73" x="172.216797"/>
     <use xlink:href="#DejaVuSans-68" x="224.316406"/>
     <use xlink:href="#DejaVuSans-20" x="287.695312"/>
     <use xlink:href="#DejaVuSans-53" x="319.482422"/>
     <use xlink:href="#DejaVuSans-65" x="382.958984"/>
     <use xlink:href="#DejaVuSans-76" x="444.482422"/>
     <use xlink:href="#DejaVuSans-65" x="503.662109"/>
     <use xlink:href="#DejaVuSans-72" x="565.185547"/>
     <use xlink:href="#DejaVuSans-69" x="606.298828"/>
     <use xlink:href="#DejaVuSans-74" x="634.082031"/>
     <use xlink:href="#DejaVuSans-79" x="673.291016"/>
     <use xlink:href="#DejaVuSans-20" x="732.470703"/>
     <use xlink:href="#DejaVuSans-62" x="764.257812"/>
     <use xlink:href="#DejaVuSans-79" x="827.734375"/>
     <use xlink:href="#DejaVuSans-20" x="886.914062"/>
     <use xlink:href="#DejaVuSans-54" x="918.701172"/>
     <use xlink:href="#DejaVuSans-79" x="964.160156"/>
     <use xlink:href="#DejaVuSans-70" x="1023.339844"/>
     <use xlink:href="#DejaVuSans-65" x="1086.816406"/>
     <use xlink:href="#DejaVuSans-20" x="1148.339844"/>
     <use xlink:href="#DejaVuSans-6f" x="1180.126953"/>
     <use xlink:href="#DejaVuSans-66" x="1241.308594"/>
     <use xlink:href="#DejaVuSans-20" x="1276.513672"/>
     <use xlink:href="#DejaVuSans-43" x="1308.300781"/>
     <use xlink:href="#DejaVuSans-72" x="1378.125"/>
     <use xlink:href="#DejaVuSans-61" x="1419.238281"/>
     <use xlink:href="#DejaVuSans-73" x="1480.517578"/>
     <use xlink:href="#DejaVuSans-68" x="1532.617188"/>
     <use xlink:href="#DejaVuSans-20" x="1595.996094"/>
     <use xlink:href="#DejaVuSans-2d" x="1627.783203"/>
     <use xlink:href="#DejaVuSans-20" x="1663.867188"/>
     <use xlink:href="#DejaVuSans-46" x="1695.654297"/>
     <use xlink:href="#DejaVuSans-72" x="1745.923828"/>
     <use xlink:href="#DejaVuSans-61" x="1787.037109"/>
     <use xlink:href="#DejaVuSans-6e" x="1848.316406"/>
     <use xlink:href="#DejaVuSans-6b" x="1911.695312"/>
     <use xlink:href="#DejaVuSans-6c" x="1969.605469"/>
     <use xlink:href="#DejaVuSans-69" x="1997.388672"/>
     <use xlink:href="#DejaVuSans-6e" x="2025.171875"/>
     <use xlink:href="#DejaVuSans-20" x="2088.550781"/>
     <use xlink:href="#DejaVuSans-43" x="2120.337891"/>
     <use xlink:href="#DejaVuSans-6f" x="2190.162109"/>
     <use xlink:href="#DejaVuSans-75" x="2251.34375"/>
     <use xlink:href="#DejaVuSans-6e" x="2314.722656"/>
     <use xlink:href="#DejaVuSans-74" x="2378.101562"/>
     <use xlink:href="#DejaVuSans-79" x="2417.310547"/>
    </g>
   </g>
   <g id="legend_1">
    <g id="patch_64">
     <path d="M 380.646875 130.663437 
L 480.003125 130.663437 
Q 482.003125 130.663437 482.003125 128.663437 
L 482.003125 30.837812 
Q 482.003125 28.837812 480.003125 28.837812 
L 380.646875 28.837812 
Q 378.646875 28.837812 378.646875 30.837812 
L 378.646875 128.663437 
Q 378.646875 130.663437 380.646875 130.663437 
z
" style="fill: #ffffff; opacity: 0.8; stroke: #cccccc; stroke-linejoin: miter"/>
    </g>
    <g id="patch_65">
     <path d="M 382.646875 47.075 
L 402.646875 47.075 
L 402.646875 40.075 
L 382.646875 40.075 
z
" style="fill: #a8a8a8"/>
    </g>
    <g id="text_29">
     <!-- Share of all -->
     <g transform="translate(410.646875 40.43625) scale(0.1 -0.1)">
      <use xlink:href="#DejaVuSans-53"/>
      <use xlink:href="#DejaVuSans-68" x="63.476562"/>
      <use xlink:href="#DejaVuSans-61" x="126.855469"/>
      <use xlink:href="#DejaVuSans-72" x="188.134766"/>
      <use xlink:href="#DejaVuSans-65" x="226.998047"/>
      <use xlink:href="#DejaVuSans-20" x="288.521484"/>
      <use xlink:href="#DejaVuSans-6f" x="320.308594"/>
      <use xlink:href="#DejaVuSans-66" x="381.490234"/>
      <use xlink:href="#DejaVuSans-20" x="416.695312"/>
      <use xlink:href="#DejaVuSans-61" x="448.482422"/>
      <use xlink:href="#DejaVuSans-6c" x="509.761719"/>
      <use xlink:href="#DejaVuSans-6c" x="537.544922"/>
     </g>
     <!-- crashes -->
     <g transform="translate(410.646875 51.634062) scale(0.1 -0.1)">
      <use xlink:href="#DejaVuSans-63"/>
      <use xlink:href="#DejaVuSans-72" x="54.980469"/>
      <use xlink:href="#DejaVuSans-61" x="96.09375"/>
      <use xlink:href="#DejaVuSans-73" x="157.373047"/>
      <use xlink:href="#DejaVuSans-68" x="209.472656"/>
      <use xlink:href="#DejaVuSans-65" x="272.851562"/>
      <use xlink:href="#DejaVuSans-73" x="334.375"/>
     </g>
    </g>
    <g id="patch_66">
     <path d="M 382.646875 83.549844 
L 402.646875 83.549844 
L 402.646875 76.549844 
L 382.646875 76.549844 
z
" style="fill: #f7b602"/>
    </g>
    <g id="text_30">
     <!-- Share of -->
     <g transform="translate(410.646875 71.312187) scale(0.1 -0.1)">
      <use xlink:href="#DejaVuSans-53"/>
      <use xlink:href="#DejaVuSans-68" x="63.476562"/>
      <use xlink:href="#DejaVuSans-61" x="126.855469"/>
      <use xlink:href="#DejaVuSans-72" x="188.134766"/>
      <use xlink:href="#DejaVuSans-65" x="226.998047"/>
      <use xlink:href="#DejaVuSans-20" x="288.521484"/>
      <use xlink:href="#DejaVuSans-6f" x="320.308594"/>
      <use xlink:href="#DejaVuSans-66" x="381.490234"/>
     </g>
     <!-- serious injury -->
     <g transform="translate(410.646875 82.51) scale(0.1 -0.1)">
      <use xlink:href="#DejaVuSans-73"/>
      <use xlink:href="#DejaVuSans-65" x="52.099609"/>
      <use xlink:href="#DejaVuSans-72" x="113.623047"/>
      <use xlink:href="#DejaVuSans-69" x="154.736328"/>
      <use xlink:href="#DejaVuSans-6f" x="182.519531"/>
      <use xlink:href="#DejaVuSans-75" x="243.701172"/>
      <use xlink:href="#DejaVuSans-73" x="307.080078"/>
      <use xlink:href="#DejaVuSans-20" x="359.179688"/>
      <use xlink:href="#DejaVuSans-69" x="390.966797"/>
      <use xlink:href="#DejaVuSans-6e" x="418.75"/>
      <use xlink:href="#DejaVuSans-6a" x="482.128906"/>
      <use xlink:href="#DejaVuSans-75" x="509.912109"/>
      <use xlink:href="#DejaVuSans-72" x="573.291016"/>
      <use xlink:href="#DejaVuSans-79" x="614.404297"/>
     </g>
     <!-- crashes -->
     <g transform="translate(410.646875 93.707812) scale(0.1 -0.1)">
      <use xlink:href="#DejaVuSans-63"/>
      <use xlink:href="#DejaVuSans-72" x="54.980469"/>
      <use xlink:href="#DejaVuSans-61" x="96.09375"/>
      <use xlink:href="#DejaVuSans-73" x="157.373047"/>
      <use xlink:href="#DejaVuSans-68" x="209.472656"/>
      <use xlink:href="#DejaVuSans-65" x="272.851562"/>
      <use xlink:href="#DejaVuSans-73" x="334.375"/>
     </g>
    </g>
    <g id="patch_67">
     <path d="M 382.646875 120.024687 
L 402.646875 120.024687 
L 402.646875 113.024687 
L 382.646875 113.024687 
z
" style="fill: #cc1414"/>
    </g>
    <g id="text_31">
     <!-- Share of fatal -->
     <g transform="translate(410.646875 113.385937) scale(0.1 -0.1)">
      <use xlink:href="#DejaVuSans-53"/>
      <use xlink:href="#DejaVuSans-68" x="63.476562"/>
      <use xlink:href="#DejaVuSans-61" x="126.855469"/>
      <use xlink:href="#DejaVuSans-72" x="188.134766"/>
      <use xlink:href="#DejaVuSans-65" x="226.998047"/>
      <use xlink:href="#DejaVuSans-20" x="288.521484"/>
      <use xlink:href="#DejaVuSans-6f" x="320.308594"/>
      <use xlink:href="#DejaVuSans-66" x="381.490234"/>
      <use xlink:href="#DejaVuSans-20" x="416.695312"/>
      <use xlink:href="#DejaVuSans-66" x="448.482422"/>
      <use xlink:href="#DejaVuSans-61" x="483.6875"/>
      <use xlink:href="#DejaVuSans-74" x="544.966797"/>
      <use xlink:href="#DejaVuSans-61" x="584.175781"/>
      <use xlink:href="#DejaVuSans-6c" x="645.455078"/>
     </g>
     <!-- crashes -->
     <g transform="translate(410.646875 124.58375) scale(0.1 -0.1)">
      <use xlink:href="#DejaVuSans-63"/>
      <use xlink:href="#DejaVuSans-72" x="54.980469"/>
      <use xlink:href="#DejaVuSans-61" x="96.09375"/>
      <use xlink:href="#DejaVuSans-73" x="157.373047"/>
      <use xlink:href="#DejaVuSans-68" x="209.472656"/>
      <use xlink:href="#DejaVuSans-65" x="272.851562"/>
      <use xlink:href="#DejaVuSans-73" x="334.375"/>
     </g>
    </g>
   </g>
  </g>
 </g>
 <defs>
  <clipPath id="p9ef0299568">
   <rect x="40.603125" y="23.837812" width="446.4" height="249.48"/>
  </clipPath>
 </defs>
</svg>
