<?xml version="1.0" encoding="utf-8" standalone="no"?>
<!DOCTYPE svg PUBLIC "-//W3C//DTD SVG 1.1//EN"
  "http://www.w3.org/Graphics/SVG/1.1/DTD/svg11.dtd">
<svg xmlns:xlink="http://www.w3.org/1999/xlink" width="500.565625pt" height="355.356875pt" viewBox="0 0 500.565625 355.356875" xmlns="http://www.w3.org/2000/svg" version="1.1">
 <metadata>
  <rdf:RDF xmlns:dc="http://purl.org/dc/elements/1.1/" xmlns:cc="http://creativecommons.org/ns#" xmlns:rdf="http://www.w3.org/1999/02/22-rdf-syntax-ns#">
   <cc:Work>
    <dc:type rdf:resource="http://purl.org/dc/dcmitype/StillImage"/>
    <dc:date>2025-03-12T21:04:25.902195</dc:date>
    <dc:format>image/svg+xml</dc:format>
    <dc:creator>
     <cc:Agent>
      <dc:title>Matplotlib v3.9.2, https://matplotlib.org/</dc:title>
     </cc:Agent>
    </dc:creator>
   </cc:Work>
  </rdf:RDF>
 </metadata>
 <defs>
  <style type="text/css">*{stroke-linejoin: round; stroke-linecap: butt}</style>
 </defs>
 <g id="figure_1">
  <g id="patch_1">
   <path d="M 0 355.356875 
L 500.565625 355.356875 
L 500.565625 -0 
L 0 -0 
z
" style="fill: #ffffff"/>
  </g>
  <g id="axes_1">
   <g id="patch_2">
    <path d="M 46.965625 273.317812 
L 493.365625 273.317812 
L 493.365625 23.837812 
L 46.965625 23.837812 
z
" style="fill: #ffffff"/>
   </g>
   <g id="matplotlib.axis_1">
    <g id="xtick_1">
     <g id="line2d_1">
      <defs>
       <path id="m44a6c36723" d="M 0 0 
L 0 3.5 
" style="stroke: #000000; stroke-width: 0.8"/>
      </defs>
      <g>
       <use xlink:href="#m44a6c36723" x="121.365625" y="273.317812" style="stroke: #000000; stroke-width: 0.8"/>
      </g>
     </g>
     <g id="text_1">
      <!-- Motor Vehicle -->
      <g transform="translate(124.125 348.156875) rotate(-90) scale(0.1 -0.1)">
       <defs>
        <path id="DejaVuSans-4d" d="M 628 4666 
L 1569 4666 
L 2759 1491 
L 3956 4666 
L 4897 4666 
L 4897 0 
L 4281 0 
L 4281 4097 
L 3078 897 
L 2444 897 
L 1241 4097 
L 1241 0 
L 628 0 
L 628 4666 
z
" transform="scale(0.015625)"/>
        <path id="DejaVuSans-6f" d="M 1959 3097 
Q 1497 3097 1228 2736 
Q 959 2375 959 1747 
Q 959 1119 1226 758 
Q 1494 397 1959 397 
Q 2419 397 2687 759 
Q 2956 1122 2956 1747 
Q 2956 2369 2687 2733 
Q 2419 3097 1959 3097 
z
M 1959 3584 
Q 2709 3584 3137 3096 
Q 3566 2609 3566 1747 
Q 3566 888 3137 398 
Q 2709 -91 1959 -91 
Q 1206 -91 779 398 
Q 353 888 353 1747 
Q 353 2609 779 3096 
Q 1206 3584 1959 3584 
z
" transform="scale(0.015625)"/>
        <path id="DejaVuSans-74" d="M 1172 4494 
L 1172 3500 
L 2356 3500 
L 2356 3053 
L 1172 3053 
L 1172 1153 
Q 1172 725 1289 603 
Q 1406 481 1766 481 
L 2356 481 
L 2356 0 
L 1766 0 
Q 1100 0 847 248 
Q 594 497 594 1153 
L 594 3053 
L 172 3053 
L 172 3500 
L 594 3500 
L 594 4494 
L 1172 4494 
z
" transform="scale(0.015625)"/>
        <path id="DejaVuSans-72" d="M 2631 2963 
Q 2534 3019 2420 3045 
Q 2306 3072 2169 3072 
Q 1681 3072 1420 2755 
Q 1159 2438 1159 1844 
L 1159 0 
L 581 0 
L 581 3500 
L 1159 3500 
L 1159 2956 
Q 1341 3275 1631 3429 
Q 1922 3584 2338 3584 
Q 2397 3584 2469 3576 
Q 2541 3569 2628 3553 
L 2631 2963 
z
" transform="scale(0.015625)"/>
        <path id="DejaVuSans-20" transform="scale(0.015625)"/>
        <path id="DejaVuSans-56" d="M 1831 0 
L 50 4666 
L 709 4666 
L 2188 738 
L 3669 4666 
L 4325 4666 
L 2547 0 
L 1831 0 
z
" transform="scale(0.015625)"/>
        <path id="DejaVuSans-65" d="M 3597 1894 
L 3597 1613 
L 953 1613 
Q 991 1019 1311 708 
Q 1631 397 2203 397 
Q 2534 397 2845 478 
Q 3156 559 3463 722 
L 3463 178 
Q 3153 47 2828 -22 
Q 2503 -91 2169 -91 
Q 1331 -91 842 396 
Q 353 884 353 1716 
Q 353 2575 817 3079 
Q 1281 3584 2069 3584 
Q 2775 3584 3186 3129 
Q 3597 2675 3597 1894 
z
M 3022 2063 
Q 3016 2534 2758 2815 
Q 2500 3097 2075 3097 
Q 1594 3097 1305 2825 
Q 1016 2553 972 2059 
L 3022 2063 
z
" transform="scale(0.015625)"/>
        <path id="DejaVuSans-68" d="M 3513 2113 
L 3513 0 
L 2938 0 
L 2938 2094 
Q 2938 2591 2744 2837 
Q 2550 3084 2163 3084 
Q 1697 3084 1428 2787 
Q 1159 2491 1159 1978 
L 1159 0 
L 581 0 
L 581 4863 
L 1159 4863 
L 1159 2956 
Q 1366 3272 1645 3428 
Q 1925 3584 2291 3584 
Q 2894 3584 3203 3211 
Q 3513 2838 3513 2113 
z
" transform="scale(0.015625)"/>
        <path id="DejaVuSans-69" d="M 603 3500 
L 1178 3500 
L 1178 0 
L 603 0 
L 603 3500 
z
M 603 4863 
L 1178 4863 
L 1178 4134 
L 603 4134 
L 603 4863 
z
" transform="scale(0.015625)"/>
        <path id="DejaVuSans-63" d="M 3122 3366 
L 3122 2828 
Q 2878 2963 2633 3030 
Q 2388 3097 2138 3097 
Q 1578 3097 1268 2742 
Q 959 2388 959 1747 
Q 959 1106 1268 751 
Q 1578 397 2138 397 
Q 2388 397 2633 464 
Q 2878 531 3122 666 
L 3122 134 
Q 2881 22 2623 -34 
Q 2366 -91 2075 -91 
Q 1284 -91 818 406 
Q 353 903 353 1747 
Q 353 2603 823 3093 
Q 1294 3584 2113 3584 
Q 2378 3584 2631 3529 
Q 2884 3475 3122 3366 
z
" transform="scale(0.015625)"/>
        <path id="DejaVuSans-6c" d="M 603 4863 
L 1178 4863 
L 1178 0 
L 603 0 
L 603 4863 
z
" transform="scale(0.015625)"/>
       </defs>
       <use xlink:href="#DejaVuSans-4d"/>
       <use xlink:href="#DejaVuSans-6f" x="86.279297"/>
       <use xlink:href="#DejaVuSans-74" x="147.460938"/>
       <use xlink:href="#DejaVuSans-6f" x="186.669922"/>
       <use xlink:href="#DejaVuSans-72" x="247.851562"/>
       <use xlink:href="#DejaVuSans-20" x="288.964844"/>
       <use xlink:href="#DejaVuSans-56" x="320.751953"/>
       <use xlink:href="#DejaVuSans-65" x="381.410156"/>
       <use xlink:href="#DejaVuSans-68" x="442.933594"/>
       <use xlink:href="#DejaVuSans-69" x="506.3125"/>
       <use xlink:href="#DejaVuSans-63" x="534.095703"/>
       <use xlink:href="#DejaVuSans-6c" x="589.076172"/>
       <use xlink:href="#DejaVuSans-65" x="616.859375"/>
      </g>
     </g>
    </g>
    <g id="xtick_2">
     <g id="line2d_2">
      <g>
       <use xlink:href="#m44a6c36723" x="270.165625" y="273.317812" style="stroke: #000000; stroke-width: 0.8"/>
      </g>
     </g>
     <g id="text_2">
      <!-- Pedalcycles -->
      <g transform="translate(272.925 338.449062) rotate(-90) scale(0.1 -0.1)">
       <defs>
        <path id="DejaVuSans-50" d="M 1259 4147 
L 1259 2394 
L 2053 2394 
Q 2494 2394 2734 2622 
Q 2975 2850 2975 3272 
Q 2975 3691 2734 3919 
Q 2494 4147 2053 4147 
L 1259 4147 
z
M 628 4666 
L 2053 4666 
Q 2838 4666 3239 4311 
Q 3641 3956 3641 3272 
Q 3641 2581 3239 2228 
Q 2838 1875 2053 1875 
L 1259 1875 
L 1259 0 
L 628 0 
L 628 4666 
z
" transform="scale(0.015625)"/>
        <path id="DejaVuSans-64" d="M 2906 2969 
L 2906 4863 
L 3481 4863 
L 3481 0 
L 2906 0 
L 2906 525 
Q 2725 213 2448 61 
Q 2172 -91 1784 -91 
Q 1150 -91 751 415 
Q 353 922 353 1747 
Q 353 2572 751 3078 
Q 1150 3584 1784 3584 
Q 2172 3584 2448 3432 
Q 2725 3281 2906 2969 
z
M 947 1747 
Q 947 1113 1208 752 
Q 1469 391 1925 391 
Q 2381 391 2643 752 
Q 2906 1113 2906 1747 
Q 2906 2381 2643 2742 
Q 2381 3103 1925 3103 
Q 1469 3103 1208 2742 
Q 947 2381 947 1747 
z
" transform="scale(0.015625)"/>
        <path id="DejaVuSans-61" d="M 2194 1759 
Q 1497 1759 1228 1600 
Q 959 1441 959 1056 
Q 959 750 1161 570 
Q 1363 391 1709 391 
Q 2188 391 2477 730 
Q 2766 1069 2766 1631 
L 2766 1759 
L 2194 1759 
z
M 3341 1997 
L 3341 0 
L 2766 0 
L 2766 531 
Q 2569 213 2275 61 
Q 1981 -91 1556 -91 
Q 1019 -91 701 211 
Q 384 513 384 1019 
Q 384 1609 779 1909 
Q 1175 2209 1959 2209 
L 2766 2209 
L 2766 2266 
Q 2766 2663 2505 2880 
Q 2244 3097 1772 3097 
Q 1472 3097 1187 3025 
Q 903 2953 641 2809 
L 641 3341 
Q 956 3463 1253 3523 
Q 1550 3584 1831 3584 
Q 2591 3584 2966 3190 
Q 3341 2797 3341 1997 
z
" transform="scale(0.015625)"/>
        <path id="DejaVuSans-79" d="M 2059 -325 
Q 1816 -950 1584 -1140 
Q 1353 -1331 966 -1331 
L 506 -1331 
L 506 -850 
L 844 -850 
Q 1081 -850 1212 -737 
Q 1344 -625 1503 -206 
L 1606 56 
L 191 3500 
L 800 3500 
L 1894 763 
L 2988 3500 
L 3597 3500 
L 2059 -325 
z
" transform="scale(0.015625)"/>
        <path id="DejaVuSans-73" d="M 2834 3397 
L 2834 2853 
Q 2591 2978 2328 3040 
Q 2066 3103 1784 3103 
Q 1356 3103 1142 2972 
Q 928 2841 928 2578 
Q 928 2378 1081 2264 
Q 1234 2150 1697 2047 
L 1894 2003 
Q 2506 1872 2764 1633 
Q 3022 1394 3022 966 
Q 3022 478 2636 193 
Q 2250 -91 1575 -91 
Q 1294 -91 989 -36 
Q 684 19 347 128 
L 347 722 
Q 666 556 975 473 
Q 1284 391 1588 391 
Q 1994 391 2212 530 
Q 2431 669 2431 922 
Q 2431 1156 2273 1281 
Q 2116 1406 1581 1522 
L 1381 1569 
Q 847 1681 609 1914 
Q 372 2147 372 2553 
Q 372 3047 722 3315 
Q 1072 3584 1716 3584 
Q 2034 3584 2315 3537 
Q 2597 3491 2834 3397 
z
" transform="scale(0.015625)"/>
       </defs>
       <use xlink:href="#DejaVuSans-50"/>
       <use xlink:href="#DejaVuSans-65" x="56.677734"/>
       <use xlink:href="#DejaVuSans-64" x="118.201172"/>
       <use xlink:href="#DejaVuSans-61" x="181.677734"/>
       <use xlink:href="#DejaVuSans-6c" x="242.957031"/>
       <use xlink:href="#DejaVuSans-63" x="270.740234"/>
       <use xlink:href="#DejaVuSans-79" x="325.720703"/>
       <use xlink:href="#DejaVuSans-63" x="384.900391"/>
       <use xlink:href="#DejaVuSans-6c" x="439.880859"/>
       <use xlink:href="#DejaVuSans-65" x="467.664062"/>
       <use xlink:href="#DejaVuSans-73" x="529.1875"/>
      </g>
     </g>
    </g>
    <g id="xtick_3">
     <g id="line2d_3">
      <g>
       <use xlink:href="#m44a6c36723" x="418.965625" y="273.317812" style="stroke: #000000; stroke-width: 0.8"/>
      </g>
     </g>
     <g id="text_3">
      <!-- Pedestrian -->
      <g transform="translate(421.725 333.124062) rotate(-90) scale(0.1 -0.1)">
       <defs>
        <path id="DejaVuSans-6e" d="M 3513 2113 
L 3513 0 
L 2938 0 
L 2938 2094 
Q 2938 2591 2744 2837 
Q 2550 3084 2163 3084 
Q 1697 3084 1428 2787 
Q 1159 2491 1159 1978 
L 1159 0 
L 581 0 
L 581 3500 
L 1159 3500 
L 1159 2956 
Q 1366 3272 1645 3428 
Q 1925 3584 2291 3584 
Q 2894 3584 3203 3211 
Q 3513 2838 3513 2113 
z
" transform="scale(0.015625)"/>
       </defs>
       <use xlink:href="#DejaVuSans-50"/>
       <use xlink:href="#DejaVuSans-65" x="56.677734"/>
       <use xlink:href="#DejaVuSans-64" x="118.201172"/>
       <use xlink:href="#DejaVuSans-65" x="181.677734"/>
       <use xlink:href="#DejaVuSans-73" x="243.201172"/>
       <use xlink:href="#DejaVuSans-74" x="295.300781"/>
       <use xlink:href="#DejaVuSans-72" x="334.509766"/>
       <use xlink:href="#DejaVuSans-69" x="375.623047"/>
       <use xlink:href="#DejaVuSans-61" x="403.40625"/>
       <use xlink:href="#DejaVuSans-6e" x="464.685547"/>
      </g>
     </g>
    </g>
   </g>
   <g id="matplotlib.axis_2">
    <g id="ytick_1">
     <g id="line2d_4">
      <path d="M 46.965625 273.317812 
L 493.365625 273.317812 
" clip-path="url(#pbf5e7d87c8)" style="fill: none; stroke: #d3d3d3; stroke-width: 0.8; stroke-linecap: square"/>
     </g>
     <g id="line2d_5">
      <defs>
       <path id="m536a79b2f4" d="M 0 0 
L -3.5 0 
" style="stroke: #000000; stroke-width: 0.8"/>
      </defs>
      <g>
       <use xlink:href="#m536a79b2f4" x="46.965625" y="273.317812" style="stroke: #000000; stroke-width: 0.8"/>
      </g>
     </g>
     <g id="text_4">
      <!-- 0 -->
      <g transform="translate(33.603125 277.117031) scale(0.1 -0.1)">
       <defs>
        <path id="DejaVuSans-30" d="M 2034 4250 
Q 1547 4250 1301 3770 
Q 1056 3291 1056 2328 
Q 1056 1369 1301 889 
Q 1547 409 2034 409 
Q 2525 409 2770 889 
Q 3016 1369 3016 2328 
Q 3016 3291 2770 3770 
Q 2525 4250 2034 4250 
z
M 2034 4750 
Q 2819 4750 3233 4129 
Q 3647 3509 3647 2328 
Q 3647 1150 3233 529 
Q 2819 -91 2034 -91 
Q 1250 -91 836 529 
Q 422 1150 422 2328 
Q 422 3509 836 4129 
Q 1250 4750 2034 4750 
z
" transform="scale(0.015625)"/>
       </defs>
       <use xlink:href="#DejaVuSans-30"/>
      </g>
     </g>
    </g>
    <g id="ytick_2">
     <g id="line2d_6">
      <path d="M 46.965625 223.421812 
L 493.365625 223.421812 
" clip-path="url(#pbf5e7d87c8)" style="fill: none; stroke: #d3d3d3; stroke-width: 0.8; stroke-linecap: square"/>
     </g>
     <g id="line2d_7">
      <g>
       <use xlink:href="#m536a79b2f4" x="46.965625" y="223.421812" style="stroke: #000000; stroke-width: 0.8"/>
      </g>
     </g>
     <g id="text_5">
      <!-- 20 -->
      <g transform="translate(27.240625 227.221031) scale(0.1 -0.1)">
       <defs>
        <path id="DejaVuSans-32" d="M 1228 531 
L 3431 531 
L 3431 0 
L 469 0 
L 469 531 
Q 828 903 1448 1529 
Q 2069 2156 2228 2338 
Q 2531 2678 2651 2914 
Q 2772 3150 2772 3378 
Q 2772 3750 2511 3984 
Q 2250 4219 1831 4219 
Q 1534 4219 1204 4116 
Q 875 4013 500 3803 
L 500 4441 
Q 881 4594 1212 4672 
Q 1544 4750 1819 4750 
Q 2544 4750 2975 4387 
Q 3406 4025 3406 3419 
Q 3406 3131 3298 2873 
Q 3191 2616 2906 2266 
Q 2828 2175 2409 1742 
Q 1991 1309 1228 531 
z
" transform="scale(0.015625)"/>
       </defs>
       <use xlink:href="#DejaVuSans-32"/>
       <use xlink:href="#DejaVuSans-30" x="63.623047"/>
      </g>
     </g>
    </g>
    <g id="ytick_3">
     <g id="line2d_8">
      <path d="M 46.965625 173.525812 
L 493.365625 173.525812 
" clip-path="url(#pbf5e7d87c8)" style="fill: none; stroke: #d3d3d3; stroke-width: 0.8; stroke-linecap: square"/>
     </g>
     <g id="line2d_9">
      <g>
       <use xlink:href="#m536a79b2f4" x="46.965625" y="173.525812" style="stroke: #000000; stroke-width: 0.8"/>
      </g>
     </g>
     <g id="text_6">
      <!-- 40 -->
      <g transform="translate(27.240625 177.325031) scale(0.1 -0.1)">
       <defs>
        <path id="DejaVuSans-34" d="M 2419 4116 
L 825 1625 
L 2419 1625 
L 2419 4116 
z
M 2253 4666 
L 3047 4666 
L 3047 1625 
L 3713 1625 
L 3713 1100 
L 3047 1100 
L 3047 0 
L 2419 0 
L 2419 1100 
L 313 1100 
L 313 1709 
L 2253 4666 
z
" transform="scale(0.015625)"/>
       </defs>
       <use xlink:href="#DejaVuSans-34"/>
       <use xlink:href="#DejaVuSans-30" x="63.623047"/>
      </g>
     </g>
    </g>
    <g id="ytick_4">
     <g id="line2d_10">
      <path d="M 46.965625 123.629812 
L 493.365625 123.629812 
" clip-path="url(#pbf5e7d87c8)" style="fill: none; stroke: #d3d3d3; stroke-width: 0.8; stroke-linecap: square"/>
     </g>
     <g id="line2d_11">
      <g>
       <use xlink:href="#m536a79b2f4" x="46.965625" y="123.629812" style="stroke: #000000; stroke-width: 0.8"/>
      </g>
     </g>
     <g id="text_7">
      <!-- 60 -->
      <g transform="translate(27.240625 127.429031) scale(0.1 -0.1)">
       <defs>
        <path id="DejaVuSans-36" d="M 2113 2584 
Q 1688 2584 1439 2293 
Q 1191 2003 1191 1497 
Q 1191 994 1439 701 
Q 1688 409 2113 409 
Q 2538 409 2786 701 
Q 3034 994 3034 1497 
Q 3034 2003 2786 2293 
Q 2538 2584 2113 2584 
z
M 3366 4563 
L 3366 3988 
Q 3128 4100 2886 4159 
Q 2644 4219 2406 4219 
Q 1781 4219 1451 3797 
Q 1122 3375 1075 2522 
Q 1259 2794 1537 2939 
Q 1816 3084 2150 3084 
Q 2853 3084 3261 2657 
Q 3669 2231 3669 1497 
Q 3669 778 3244 343 
Q 2819 -91 2113 -91 
Q 1303 -91 875 529 
Q 447 1150 447 2328 
Q 447 3434 972 4092 
Q 1497 4750 2381 4750 
Q 2619 4750 2861 4703 
Q 3103 4656 3366 4563 
z
" transform="scale(0.015625)"/>
       </defs>
       <use xlink:href="#DejaVuSans-36"/>
       <use xlink:href="#DejaVuSans-30" x="63.623047"/>
      </g>
     </g>
    </g>
    <g id="ytick_5">
     <g id="line2d_12">
      <path d="M 46.965625 73.733812 
L 493.365625 73.733812 
" clip-path="url(#pbf5e7d87c8)" style="fill: none; stroke: #d3d3d3; stroke-width: 0.8; stroke-linecap: square"/>
     </g>
     <g id="line2d_13">
      <g>
       <use xlink:href="#m536a79b2f4" x="46.965625" y="73.733812" style="stroke: #000000; stroke-width: 0.8"/>
      </g>
     </g>
     <g id="text_8">
      <!-- 80 -->
      <g transform="translate(27.240625 77.533031) scale(0.1 -0.1)">
       <defs>
        <path id="DejaVuSans-38" d="M 2034 2216 
Q 1584 2216 1326 1975 
Q 1069 1734 1069 1313 
Q 1069 891 1326 650 
Q 1584 409 2034 409 
Q 2484 409 2743 651 
Q 3003 894 3003 1313 
Q 3003 1734 2745 1975 
Q 2488 2216 2034 2216 
z
M 1403 2484 
Q 997 2584 770 2862 
Q 544 3141 544 3541 
Q 544 4100 942 4425 
Q 1341 4750 2034 4750 
Q 2731 4750 3128 4425 
Q 3525 4100 3525 3541 
Q 3525 3141 3298 2862 
Q 3072 2584 2669 2484 
Q 3125 2378 3379 2068 
Q 3634 1759 3634 1313 
Q 3634 634 3220 271 
Q 2806 -91 2034 -91 
Q 1263 -91 848 271 
Q 434 634 434 1313 
Q 434 1759 690 2068 
Q 947 2378 1403 2484 
z
M 1172 3481 
Q 1172 3119 1398 2916 
Q 1625 2713 2034 2713 
Q 2441 2713 2670 2916 
Q 2900 3119 2900 3481 
Q 2900 3844 2670 4047 
Q 2441 4250 2034 4250 
Q 1625 4250 1398 4047 
Q 1172 3844 1172 3481 
z
" transform="scale(0.015625)"/>
       </defs>
       <use xlink:href="#DejaVuSans-38"/>
       <use xlink:href="#DejaVuSans-30" x="63.623047"/>
      </g>
     </g>
    </g>
    <g id="ytick_6">
     <g id="line2d_14">
      <path d="M 46.965625 23.837812 
L 493.365625 23.837812 
" clip-path="url(#pbf5e7d87c8)" style="fill: none; stroke: #d3d3d3; stroke-width: 0.8; stroke-linecap: square"/>
     </g>
     <g id="line2d_15">
      <g>
       <use xlink:href="#m536a79b2f4" x="46.965625" y="23.837812" style="stroke: #000000; stroke-width: 0.8"/>
      </g>
     </g>
     <g id="text_9">
      <!-- 100 -->
      <g transform="translate(20.878125 27.637031) scale(0.1 -0.1)">
       <defs>
        <path id="DejaVuSans-31" d="M 794 531 
L 1825 531 
L 1825 4091 
L 703 3866 
L 703 4441 
L 1819 4666 
L 2450 4666 
L 2450 531 
L 3481 531 
L 3481 0 
L 794 0 
L 794 531 
z
" transform="scale(0.015625)"/>
       </defs>
       <use xlink:href="#DejaVuSans-31"/>
       <use xlink:href="#DejaVuSans-30" x="63.623047"/>
       <use xlink:href="#DejaVuSans-30" x="127.246094"/>
      </g>
     </g>
    </g>
    <g id="text_10">
     <!-- Percent of crashes -->
     <g transform="translate(14.798438 194.706719) rotate(-90) scale(0.1 -0.1)">
      <defs>
       <path id="DejaVuSans-66" d="M 2375 4863 
L 2375 4384 
L 1825 4384 
Q 1516 4384 1395 4259 
Q 1275 4134 1275 3809 
L 1275 3500 
L 2222 3500 
L 2222 3053 
L 1275 3053 
L 1275 0 
L 697 0 
L 697 3053 
L 147 3053 
L 147 3500 
L 697 3500 
L 697 3744 
Q 697 4328 969 4595 
Q 1241 4863 1831 4863 
L 2375 4863 
z
" transform="scale(0.015625)"/>
      </defs>
      <use xlink:href="#DejaVuSans-50"/>
      <use xlink:href="#DejaVuSans-65" x="56.677734"/>
      <use xlink:href="#DejaVuSans-72" x="118.201172"/>
      <use xlink:href="#DejaVuSans-63" x="157.064453"/>
      <use xlink:href="#DejaVuSans-65" x="212.044922"/>
      <use xlink:href="#DejaVuSans-6e" x="273.568359"/>
      <use xlink:href="#DejaVuSans-74" x="336.947266"/>
      <use xlink:href="#DejaVuSans-20" x="376.15625"/>
      <use xlink:href="#DejaVuSans-6f" x="407.943359"/>
      <use xlink:href="#DejaVuSans-66" x="469.125"/>
      <use xlink:href="#DejaVuSans-20" x="504.330078"/>
      <use xlink:href="#DejaVuSans-63" x="536.117188"/>
      <use xlink:href="#DejaVuSans-72" x="591.097656"/>
      <use xlink:href="#DejaVuSans-61" x="632.210938"/>
      <use xlink:href="#DejaVuSans-73" x="693.490234"/>
      <use xlink:href="#DejaVuSans-68" x="745.589844"/>
      <use xlink:href="#DejaVuSans-65" x="808.96875"/>
      <use xlink:href="#DejaVuSans-73" x="870.492188"/>
     </g>
    </g>
   </g>
   <g id="patch_3">
    <path d="M 84.165625 273.317812 
L 102.765625 273.317812 
L 102.765625 271.77065 
L 84.165625 271.77065 
z
" clip-path="url(#pbf5e7d87c8)" style="fill: #cc1414"/>
   </g>
   <g id="patch_4">
    <path d="M 232.965625 273.317812 
L 251.565625 273.317812 
L 251.565625 273.317812 
L 232.965625 273.317812 
z
" clip-path="url(#pbf5e7d87c8)" style="fill: #cc1414"/>
   </g>
   <g id="patch_5">
    <path d="M 381.765625 273.317812 
L 400.365625 273.317812 
L 400.365625 256.112295 
L 381.765625 256.112295 
z
" clip-path="url(#pbf5e7d87c8)" style="fill: #cc1414"/>
   </g>
   <g id="patch_6">
    <path d="M 102.765625 273.317812 
L 121.365625 273.317812 
L 121.365625 263.164557 
L 102.765625 263.164557 
z
" clip-path="url(#pbf5e7d87c8)" style="fill: #f7b602"/>
   </g>
   <g id="patch_7">
    <path d="M 251.565625 273.317812 
L 270.165625 273.317812 
L 270.165625 173.525812 
L 251.565625 173.525812 
z
" clip-path="url(#pbf5e7d87c8)" style="fill: #f7b602"/>
   </g>
   <g id="patch_8">
    <path d="M 400.365625 273.317812 
L 418.965625 273.317812 
L 418.965625 170.084709 
L 400.365625 170.084709 
z
" clip-path="url(#pbf5e7d87c8)" style="fill: #f7b602"/>
   </g>
   <g id="patch_9">
    <path d="M 121.365625 273.317812 
L 139.965625 273.317812 
L 139.965625 261.617394 
L 121.365625 261.617394 
z
" clip-path="url(#pbf5e7d87c8)" style="fill: #508efa"/>
   </g>
   <g id="patch_10">
    <path d="M 270.165625 273.317812 
L 288.765625 273.317812 
L 288.765625 173.525812 
L 270.165625 173.525812 
z
" clip-path="url(#pbf5e7d87c8)" style="fill: #508efa"/>
   </g>
   <g id="patch_11">
    <path d="M 418.965625 273.317812 
L 437.565625 273.317812 
L 437.565625 152.879192 
L 418.965625 152.879192 
z
" clip-path="url(#pbf5e7d87c8)" style="fill: #508efa"/>
   </g>
   <g id="patch_12">
    <path d="M 139.965625 273.317812 
L 158.565625 273.317812 
L 158.565625 25.709272 
L 139.965625 25.709272 
z
" clip-path="url(#pbf5e7d87c8)" style="fill: #a8a8a8"/>
   </g>
   <g id="patch_13">
    <path d="M 288.765625 273.317812 
L 307.365625 273.317812 
L 307.365625 272.837951 
L 288.765625 272.837951 
z
" clip-path="url(#pbf5e7d87c8)" style="fill: #a8a8a8"/>
   </g>
   <g id="patch_14">
    <path d="M 437.565625 273.317812 
L 456.165625 273.317812 
L 456.165625 271.926214 
L 437.565625 271.926214 
z
" clip-path="url(#pbf5e7d87c8)" style="fill: #a8a8a8"/>
   </g>
   <g id="patch_15">
    <path d="M 46.965625 273.317812 
L 46.965625 23.837812 
" style="fill: none; stroke: #000000; stroke-width: 0.8; stroke-linejoin: miter; stroke-linecap: square"/>
   </g>
   <g id="patch_16">
    <path d="M 493.365625 273.317812 
L 493.365625 23.837812 
" style="fill: none; stroke: #000000; stroke-width: 0.8; stroke-linejoin: miter; stroke-linecap: square"/>
   </g>
   <g id="patch_17">
    <path d="M 46.965625 273.317812 
L 493.365625 273.317812 
" style="fill: none; stroke: #000000; stroke-width: 0.8; stroke-linejoin: miter; stroke-linecap: square"/>
   </g>
   <g id="patch_18">
    <path d="M 46.965625 23.837812 
L 493.365625 23.837812 
" style="fill: none; stroke: #000000; stroke-width: 0.8; stroke-linejoin: miter; stroke-linecap: square"/>
   </g>
   <g id="text_11">
    <!-- Crash Severity by Mode of Transportation - Madison County -->
    <g transform="translate(61.830312 17.837812) scale(0.14 -0.14)">
     <defs>
      <path id="DejaVuSans-43" d="M 4122 4306 
L 4122 3641 
Q 3803 3938 3442 4084 
Q 3081 4231 2675 4231 
Q 1875 4231 1450 3742 
Q 1025 3253 1025 2328 
Q 1025 1406 1450 917 
Q 1875 428 2675 428 
Q 3081 428 3442 575 
Q 3803 722 4122 1019 
L 4122 359 
Q 3791 134 3420 21 
Q 3050 -91 2638 -91 
Q 1578 -91 968 557 
Q 359 1206 359 2328 
Q 359 3453 968 4101 
Q 1578 4750 2638 4750 
Q 3056 4750 3426 4639 
Q 3797 4528 4122 4306 
z
" transform="scale(0.015625)"/>
      <path id="DejaVuSans-53" d="M 3425 4513 
L 3425 3897 
Q 3066 4069 2747 4153 
Q 2428 4238 2131 4238 
Q 1616 4238 1336 4038 
Q 1056 3838 1056 3469 
Q 1056 3159 1242 3001 
Q 1428 2844 1947 2747 
L 2328 2669 
Q 3034 2534 3370 2195 
Q 3706 1856 3706 1288 
Q 3706 609 3251 259 
Q 2797 -91 1919 -91 
Q 1588 -91 1214 -16 
Q 841 59 441 206 
L 441 856 
Q 825 641 1194 531 
Q 1563 422 1919 422 
Q 2459 422 2753 634 
Q 3047 847 3047 1241 
Q 3047 1584 2836 1778 
Q 2625 1972 2144 2069 
L 1759 2144 
Q 1053 2284 737 2584 
Q 422 2884 422 3419 
Q 422 4038 858 4394 
Q 1294 4750 2059 4750 
Q 2388 4750 2728 4690 
Q 3069 4631 3425 4513 
z
" transform="scale(0.015625)"/>
      <path id="DejaVuSans-76" d="M 191 3500 
L 800 3500 
L 1894 563 
L 2988 3500 
L 3597 3500 
L 2284 0 
L 1503 0 
L 191 3500 
z
" transform="scale(0.015625)"/>
      <path id="DejaVuSans-62" d="M 3116 1747 
Q 3116 2381 2855 2742 
Q 2594 3103 2138 3103 
Q 1681 3103 1420 2742 
Q 1159 2381 1159 1747 
Q 1159 1113 1420 752 
Q 1681 391 2138 391 
Q 2594 391 2855 752 
Q 3116 1113 3116 1747 
z
M 1159 2969 
Q 1341 3281 1617 3432 
Q 1894 3584 2278 3584 
Q 2916 3584 3314 3078 
Q 3713 2572 3713 1747 
Q 3713 922 3314 415 
Q 2916 -91 2278 -91 
Q 1894 -91 1617 61 
Q 1341 213 1159 525 
L 1159 0 
L 581 0 
L 581 4863 
L 1159 4863 
L 1159 2969 
z
" transform="scale(0.015625)"/>
      <path id="DejaVuSans-54" d="M -19 4666 
L 3928 4666 
L 3928 4134 
L 2272 4134 
L 2272 0 
L 1638 0 
L 1638 4134 
L -19 4134 
L -19 4666 
z
" transform="scale(0.015625)"/>
      <path id="DejaVuSans-70" d="M 1159 525 
L 1159 -1331 
L 581 -1331 
L 581 3500 
L 1159 3500 
L 1159 2969 
Q 1341 3281 1617 3432 
Q 1894 3584 2278 3584 
Q 2916 3584 3314 3078 
Q 3713 2572 3713 1747 
Q 3713 922 3314 415 
Q 2916 -91 2278 -91 
Q 1894 -91 1617 61 
Q 1341 213 1159 525 
z
M 3116 1747 
Q 3116 2381 2855 2742 
Q 2594 3103 2138 3103 
Q 1681 3103 1420 2742 
Q 1159 2381 1159 1747 
Q 1159 1113 1420 752 
Q 1681 391 2138 391 
Q 2594 391 2855 752 
Q 3116 1113 3116 1747 
z
" transform="scale(0.015625)"/>
      <path id="DejaVuSans-2d" d="M 313 2009 
L 1997 2009 
L 1997 1497 
L 313 1497 
L 313 2009 
z
" transform="scale(0.015625)"/>
      <path id="DejaVuSans-75" d="M 544 1381 
L 544 3500 
L 1119 3500 
L 1119 1403 
Q 1119 906 1312 657 
Q 1506 409 1894 409 
Q 2359 409 2629 706 
Q 2900 1003 2900 1516 
L 2900 3500 
L 3475 3500 
L 3475 0 
L 2900 0 
L 2900 538 
Q 2691 219 2414 64 
Q 2138 -91 1772 -91 
Q 1169 -91 856 284 
Q 544 659 544 1381 
z
M 1991 3584 
L 1991 3584 
z
" transform="scale(0.015625)"/>
     </defs>
     <use xlink:href="#DejaVuSans-43"/>
     <use xlink:href="#DejaVuSans-72" x="69.824219"/>
     <use xlink:href="#DejaVuSans-61" x="110.9375"/>
     <use xlink:href="#DejaVuSans-73" x="172.216797"/>
     <use xlink:href="#DejaVuSans-68" x="224.316406"/>
     <use xlink:href="#DejaVuSans-20" x="287.695312"/>
     <use xlink:href="#DejaVuSans-53" x="319.482422"/>
     <use xlink:href="#DejaVuSans-65" x="382.958984"/>
     <use xlink:href="#DejaVuSans-76" x="444.482422"/>
     <use xlink:href="#DejaVuSans-65" x="503.662109"/>
     <use xlink:href="#DejaVuSans-72" x="565.185547"/>
     <use xlink:href="#DejaVuSans-69" x="606.298828"/>
     <use xlink:href="#DejaVuSans-74" x="634.082031"/>
     <use xlink:href="#DejaVuSans-79" x="673.291016"/>
     <use xlink:href="#DejaVuSans-20" x="732.470703"/>
     <use xlink:href="#DejaVuSans-62" x="764.257812"/>
     <use xlink:href="#DejaVuSans-79" x="827.734375"/>
     <use xlink:href="#DejaVuSans-20" x="886.914062"/>
     <use xlink:href="#DejaVuSans-4d" x="918.701172"/>
     <use xlink:href="#DejaVuSans-6f" x="1004.980469"/>
     <use xlink:href="#DejaVuSans-64" x="1066.162109"/>
     <use xlink:href="#DejaVuSans-65" x="1129.638672"/>
     <use xlink:href="#DejaVuSans-20" x="1191.162109"/>
     <use xlink:href="#DejaVuSans-6f" x="1222.949219"/>
     <use xlink:href="#DejaVuSans-66" x="1284.130859"/>
     <use xlink:href="#DejaVuSans-20" x="1319.335938"/>
     <use xlink:href="#DejaVuSans-54" x="1351.123047"/>
     <use xlink:href="#DejaVuSans-72" x="1397.457031"/>
     <use xlink:href="#DejaVuSans-61" x="1438.570312"/>
     <use xlink:href="#DejaVuSans-6e" x="1499.849609"/>
     <use xlink:href="#DejaVuSans-73" x="1563.228516"/>
     <use xlink:href="#DejaVuSans-70" x="1615.328125"/>
     <use xlink:href="#DejaVuSans-6f" x="1678.804688"/>
     <use xlink:href="#DejaVuSans-72" x="1739.986328"/>
     <use xlink:href="#DejaVuSans-74" x="1781.099609"/>
     <use xlink:href="#DejaVuSans-61" x="1820.308594"/>
     <use xlink:href="#DejaVuSans-74" x="1881.587891"/>
     <use xlink:href="#DejaVuSans-69" x="1920.796875"/>
     <use xlink:href="#DejaVuSans-6f" x="1948.580078"/>
     <use xlink:href="#DejaVuSans-6e" x="2009.761719"/>
     <use xlink:href="#DejaVuSans-20" x="2073.140625"/>
     <use xlink:href="#DejaVuSans-2d" x="2104.927734"/>
     <use xlink:href="#DejaVuSans-20" x="2141.011719"/>
     <use xlink:href="#DejaVuSans-4d" x="2172.798828"/>
     <use xlink:href="#DejaVuSans-61" x="2259.078125"/>
     <use xlink:href="#DejaVuSans-64" x="2320.357422"/>
     <use xlink:href="#DejaVuSans-69" x="2383.833984"/>
     <use xlink:href="#DejaVuSans-73" x="2411.617188"/>
     <use xlink:href="#DejaVuSans-6f" x="2463.716797"/>
     <use xlink:href="#DejaVuSans-6e" x="2524.898438"/>
     <use xlink:href="#DejaVuSans-20" x="2588.277344"/>
     <use xlink:href="#DejaVuSans-43" x="2620.064453"/>
     <use xlink:href="#DejaVuSans-6f" x="2689.888672"/>
     <use xlink:href="#DejaVuSans-75" x="2751.070312"/>
     <use xlink:href="#DejaVuSans-6e" x="2814.449219"/>
     <use xlink:href="#DejaVuSans-74" x="2877.828125"/>
     <use xlink:href="#DejaVuSans-79" x="2917.037109"/>
    </g>
   </g>
   <g id="legend_1">
    <g id="patch_19">
     <path d="M 387.009375 130.663437 
L 486.365625 130.663437 
Q 488.365625 130.663437 488.365625 128.663437 
L 488.365625 30.837812 
Q 488.365625 28.837812 486.365625 28.837812 
L 387.009375 28.837812 
Q 385.009375 28.837812 385.009375 30.837812 
L 385.009375 128.663437 
Q 385.009375 130.663437 387.009375 130.663437 
z
" style="fill: #ffffff; opacity: 0.8; stroke: #cccccc; stroke-linejoin: miter"/>
    </g>
    <g id="patch_20">
     <path d="M 389.009375 47.075 
L 409.009375 47.075 
L 409.009375 40.075 
L 389.009375 40.075 
z
" style="fill: #a8a8a8"/>
    </g>
    <g id="text_12">
     <!-- Share of all -->
     <g transform="translate(417.009375 40.43625) scale(0.1 -0.1)">
      <use xlink:href="#DejaVuSans-53"/>
      <use xlink:href="#DejaVuSans-68" x="63.476562"/>
      <use xlink:href="#DejaVuSans-61" x="126.855469"/>
      <use xlink:href="#DejaVuSans-72" x="188.134766"/>
      <use xlink:href="#DejaVuSans-65" x="226.998047"/>
      <use xlink:href="#DejaVuSans-20" x="288.521484"/>
      <use xlink:href="#DejaVuSans-6f" x="320.308594"/>
      <use xlink:href="#DejaVuSans-66" x="381.490234"/>
      <use xlink:href="#DejaVuSans-20" x="416.695312"/>
      <use xlink:href="#DejaVuSans-61" x="448.482422"/>
      <use xlink:href="#DejaVuSans-6c" x="509.761719"/>
      <use xlink:href="#DejaVuSans-6c" x="537.544922"/>
     </g>
     <!-- crashes -->
     <g transform="translate(417.009375 51.634062) scale(0.1 -0.1)">
      <use xlink:href="#DejaVuSans-63"/>
      <use xlink:href="#DejaVuSans-72" x="54.980469"/>
      <use xlink:href="#DejaVuSans-61" x="96.09375"/>
      <use xlink:href="#DejaVuSans-73" x="157.373047"/>
      <use xlink:href="#DejaVuSans-68" x="209.472656"/>
      <use xlink:href="#DejaVuSans-65" x="272.851562"/>
      <use xlink:href="#DejaVuSans-73" x="334.375"/>
     </g>
    </g>
    <g id="patch_21">
     <path d="M 389.009375 83.549844 
L 409.009375 83.549844 
L 409.009375 76.549844 
L 389.009375 76.549844 
z
" style="fill: #f7b602"/>
    </g>
    <g id="text_13">
     <!-- Share of -->
     <g transform="translate(417.009375 71.312187) scale(0.1 -0.1)">
      <use xlink:href="#DejaVuSans-53"/>
      <use xlink:href="#DejaVuSans-68" x="63.476562"/>
      <use xlink:href="#DejaVuSans-61" x="126.855469"/>
      <use xlink:href="#DejaVuSans-72" x="188.134766"/>
      <use xlink:href="#DejaVuSans-65" x="226.998047"/>
      <use xlink:href="#DejaVuSans-20" x="288.521484"/>
      <use xlink:href="#DejaVuSans-6f" x="320.308594"/>
      <use xlink:href="#DejaVuSans-66" x="381.490234"/>
     </g>
     <!-- serious injury -->
     <g transform="translate(417.009375 82.51) scale(0.1 -0.1)">
      <defs>
       <path id="DejaVuSans-6a" d="M 603 3500 
L 1178 3500 
L 1178 -63 
Q 1178 -731 923 -1031 
Q 669 -1331 103 -1331 
L -116 -1331 
L -116 -844 
L 38 -844 
Q 366 -844 484 -692 
Q 603 -541 603 -63 
L 603 3500 
z
M 603 4863 
L 1178 4863 
L 1178 4134 
L 603 4134 
L 603 4863 
z
" transform="scale(0.015625)"/>
      </defs>
      <use xlink:href="#DejaVuSans-73"/>
      <use xlink:href="#DejaVuSans-65" x="52.099609"/>
      <use xlink:href="#DejaVuSans-72" x="113.623047"/>
      <use xlink:href="#DejaVuSans-69" x="154.736328"/>
      <use xlink:href="#DejaVuSans-6f" x="182.519531"/>
      <use xlink:href="#DejaVuSans-75" x="243.701172"/>
      <use xlink:href="#DejaVuSans-73" x="307.080078"/>
      <use xlink:href="#DejaVuSans-20" x="359.179688"/>
      <use xlink:href="#DejaVuSans-69" x="390.966797"/>
      <use xlink:href="#DejaVuSans-6e" x="418.75"/>
      <use xlink:href="#DejaVuSans-6a" x="482.128906"/>
      <use xlink:href="#DejaVuSans-75" x="509.912109"/>
      <use xlink:href="#DejaVuSans-72" x="573.291016"/>
      <use xlink:href="#DejaVuSans-79" x="614.404297"/>
     </g>
     <!-- crashes -->
     <g transform="translate(417.009375 93.707812) scale(0.1 -0.1)">
      <use xlink:href="#DejaVuSans-63"/>
      <use xlink:href="#DejaVuSans-72" x="54.980469"/>
      <use xlink:href="#DejaVuSans-61" x="96.09375"/>
      <use xlink:href="#DejaVuSans-73" x="157.373047"/>
      <use xlink:href="#DejaVuSans-68" x="209.472656"/>
      <use xlink:href="#DejaVuSans-65" x="272.851562"/>
      <use xlink:href="#DejaVuSans-73" x="334.375"/>
     </g>
    </g>
    <g id="patch_22">
     <path d="M 389.009375 120.024687 
L 409.009375 120.024687 
L 409.009375 113.024687 
L 389.009375 113.024687 
z
" style="fill: #cc1414"/>
    </g>
    <g id="text_14">
     <!-- Share of fatal -->
     <g transform="translate(417.009375 113.385937) scale(0.1 -0.1)">
      <use xlink:href="#DejaVuSans-53"/>
      <use xlink:href="#DejaVuSans-68" x="63.476562"/>
      <use xlink:href="#DejaVuSans-61" x="126.855469"/>
      <use xlink:href="#DejaVuSans-72" x="188.134766"/>
      <use xlink:href="#DejaVuSans-65" x="226.998047"/>
      <use xlink:href="#DejaVuSans-20" x="288.521484"/>
      <use xlink:href="#DejaVuSans-6f" x="320.308594"/>
      <use xlink:href="#DejaVuSans-66" x="381.490234"/>
      <use xlink:href="#DejaVuSans-20" x="416.695312"/>
      <use xlink:href="#DejaVuSans-66" x="448.482422"/>
      <use xlink:href="#DejaVuSans-61" x="483.6875"/>
      <use xlink:href="#DejaVuSans-74" x="544.966797"/>
      <use xlink:href="#DejaVuSans-61" x="584.175781"/>
      <use xlink:href="#DejaVuSans-6c" x="645.455078"/>
     </g>
     <!-- crashes -->
     <g transform="translate(417.009375 124.58375) scale(0.1 -0.1)">
      <use xlink:href="#DejaVuSans-63"/>
      <use xlink:href="#DejaVuSans-72" x="54.980469"/>
      <use xlink:href="#DejaVuSans-61" x="96.09375"/>
      <use xlink:href="#DejaVuSans-73" x="157.373047"/>
      <use xlink:href="#DejaVuSans-68" x="209.472656"/>
      <use xlink:href="#DejaVuSans-65" x="272.851562"/>
      <use xlink:href="#DejaVuSans-73" x="334.375"/>
     </g>
    </g>
   </g>
  </g>
 </g>
 <defs>
  <clipPath id="pbf5e7d87c8">
   <rect x="46.965625" y="23.837812" width="446.4" height="249.48"/>
  </clipPath>
 </defs>
</svg>
